<?xml version="1.0" encoding="UTF-8" standalone="no"?>
<svg
   xmlns:dc="http://purl.org/dc/elements/1.1/"
   xmlns:cc="http://creativecommons.org/ns#"
   xmlns:rdf="http://www.w3.org/1999/02/22-rdf-syntax-ns#"
   xmlns:svg="http://www.w3.org/2000/svg"
   xmlns="http://www.w3.org/2000/svg"
   id="svg8"
   version="1.1"
   viewBox="0 0 15.36098 10.70954"
   height="40.477001"
   width="58.057247">
  <defs
     id="defs2" />
  <metadata
     id="metadata5">
    <rdf:RDF>
      <cc:Work
         rdf:about="">
        <dc:format>image/svg+xml</dc:format>
        <dc:type
           rdf:resource="http://purl.org/dc/dcmitype/StillImage" />
        <dc:title></dc:title>
      </cc:Work>
    </rdf:RDF>
  </metadata>
  <g
     transform="translate(-9.7453672,-276.00414)"
     id="layer1">
    <g
       id="g2834"
       style="opacity:1"
       transform="translate(-280.80703,518.99863)">
      <rect
         style="opacity:1;fill:#3b3b3b;fill-opacity:1;stroke:#000000;stroke-width:0.12620626;stroke-linecap:butt;stroke-linejoin:miter;stroke-miterlimit:4;stroke-dasharray:none;stroke-opacity:1;paint-order:markers fill stroke"
         id="rect2636"
         width="10.583334"
         height="10.583334"
         x="293.17892"
         y="-242.89281"
         ry="0" />
      <path
         style="fill:#2a6967;fill-opacity:1;stroke:#000000;stroke-width:0.05238286;stroke-linecap:butt;stroke-linejoin:miter;stroke-miterlimit:4;stroke-dasharray:none;stroke-opacity:1"
         d="m 293.19327,-242.8904 -2.58585,1.79504 1.74327,-0.12543 0.9109,-1.00491 -0.0807,-0.60614"
         id="path2638" />
      <path
         id="path2640"
         d="m 303.74735,-242.89097 2.10961,1.99514 -1.26135,-0.55502 -0.8339,-1.07307 -0.002,-0.30848"
         style="fill:#2b6d6b;fill-opacity:1;stroke:#000000;stroke-width:0.05238286;stroke-linecap:butt;stroke-linejoin:miter;stroke-miterlimit:4;stroke-dasharray:none;stroke-opacity:1" />
      <g
         id="g2804"
         transform="translate(-0.02442092,-0.68650829)">
        <rect
           transform="matrix(0.02146306,0.99976964,-0.99979931,0.02003329,0,0)"
           y="-303.51117"
           x="-228.4314"
           height="0.24369724"
           width="0.90515101"
           id="rect2660"
           style="opacity:1;fill:#4bb4b2;fill-opacity:1;stroke:none;stroke-width:0.00247534;stroke-miterlimit:4;stroke-dasharray:none;stroke-opacity:0.70980392" />
        <rect
           transform="matrix(0.02146306,0.99976964,-0.99979931,0.02003329,0,0)"
           y="-303.63705"
           x="-234.2511"
           height="0.24369724"
           width="0.90515101"
           id="rect2662"
           style="opacity:1;fill:#4bb4b2;fill-opacity:1;stroke:none;stroke-width:0.00247534;stroke-miterlimit:4;stroke-dasharray:none;stroke-opacity:0.70980392" />
        <path
           id="path2642"
           d="m 296.82094,-234.28012 -1.44003,-0.005 0.0109,-1.27561"
           style="fill:none;stroke:#d6d6d6;stroke-width:0.37288666;stroke-linecap:butt;stroke-linejoin:miter;stroke-miterlimit:4;stroke-dasharray:none;stroke-opacity:1" />
        <path
           id="path2644"
           d="m 295.33932,-238.21303 -0.008,-1.3912 1.32041,-0.002"
           style="fill:none;stroke:#d6d6d6;stroke-width:0.37288666;stroke-linecap:butt;stroke-linejoin:miter;stroke-miterlimit:4;stroke-dasharray:none;stroke-opacity:1" />
        <path
           id="path2646"
           d="m 300.20845,-239.60283 1.44002,-0.009 0.002,1.27565"
           style="fill:#3b3b3b;fill-opacity:1;stroke:#d6d6d6;stroke-width:0.37288666;stroke-linecap:butt;stroke-linejoin:miter;stroke-miterlimit:4;stroke-dasharray:none;stroke-opacity:1" />
        <path
           id="path2648"
           d="m 301.64645,-235.69157 8e-5,1.39122 -1.3204,-0.005"
           style="fill:none;stroke:#d6d6d6;stroke-width:0.37288666;stroke-linecap:butt;stroke-linejoin:miter;stroke-miterlimit:4;stroke-dasharray:none;stroke-opacity:1" />
        <path
           id="path2650"
           d="m 298.57055,-237.52647 -0.002,0.45354 h 0.48347 a 0.61466742,0.5912167 0 0 0 -0.48096,-0.45354 z m -0.24364,6.8e-4 a 0.61466742,0.5912167 0 0 0 -0.47556,0.45297 h 0.47303 z m -0.4788,0.68846 a 0.61466742,0.5912167 0 0 0 0.47246,0.46697 l 0.002,-0.46697 z m 0.71873,0 -0.002,0.4709 a 0.61466742,0.5912167 0 0 0 0.49099,-0.4709 z"
           style="opacity:1;fill:#4bb4b2;fill-opacity:1;stroke:#1f1f1f;stroke-width:0.10583334;stroke-miterlimit:4;stroke-dasharray:none;stroke-opacity:1" />
        <path
           id="path2652"
           d="m 298.57343,-238.57784 -10e-4,0.83818 a 0.82718036,0.79914233 0 0 1 0.70078,0.65067 h 0.85491 a 1.6543615,1.598285 0 0 0 -1.55401,-1.48885 z m -0.24377,0.002 a 1.6543615,1.598285 0 0 0 -1.50172,1.48643 h 0.81673 a 0.82718036,0.79914233 0 0 1 0.68331,-0.64825 z m -1.49873,1.72193 a 1.6543615,1.598285 0 0 0 1.49226,1.45983 l 10e-4,-0.76779 a 0.82718036,0.79914233 0 0 1 -0.68665,-0.69204 z m 2.44794,0 a 0.82718036,0.79914233 0 0 1 -0.71047,0.69587 l -10e-4,0.76731 a 1.6543615,1.598285 0 0 0 1.55964,-1.46318 z"
           style="opacity:1;fill:#000000;fill-opacity:1;stroke:none;stroke-width:0.01526996;stroke-miterlimit:4;stroke-dasharray:none;stroke-opacity:0.70980392" />
        <path
           id="path2654"
           d="m 298.45292,-239.57962 c -1.49692,-4e-5 -2.68336,1.19388 -2.68333,2.64728 -3e-5,1.45339 1.21346,2.63159 2.71037,2.63156 1.49691,3e-5 2.7104,-1.17817 2.71037,-2.63156 3e-5,-1.4534 -1.24051,-2.64732 -2.73741,-2.64728 z m 0.11515,0.20948 0.001,0.5094 c 0.99258,0.056 1.8094,0.8194 1.87364,1.77995 h 0.53468 v 0.23551 h -0.53396 c -0.0593,0.96242 -0.86784,1.71159 -1.86168,1.76725 l 10e-4,0.57886 -0.24364,9.1e-4 -0.001,-0.58015 c -0.98532,-0.0589 -1.7428,-0.80861 -1.80101,-1.76679 h -0.55825 v -0.23549 h 0.55802 c 0.0563,-0.95934 0.80415,-1.7188 1.78856,-1.77927 l -10e-4,-0.50927 z"
           style="opacity:1;fill:#4bb4b2;fill-opacity:1;stroke:#1f1f1f;stroke-width:0.08942917;stroke-miterlimit:4;stroke-dasharray:none;stroke-opacity:1" />
        <rect
           y="-237.08337"
           x="301.03488"
           height="0.23544028"
           width="0.93689382"
           id="rect2656"
           style="opacity:1;fill:#4bb4b2;fill-opacity:1;stroke:none;stroke-width:0.00247534;stroke-miterlimit:4;stroke-dasharray:none;stroke-opacity:0.70980392" />
        <rect
           y="-237.06679"
           x="295.01825"
           height="0.23544028"
           width="0.93689388"
           id="rect2658"
           style="opacity:1;fill:#4bb4b2;fill-opacity:1;stroke:none;stroke-width:0.00247534;stroke-miterlimit:4;stroke-dasharray:none;stroke-opacity:0.70980392" />
        <rect
           y="-237.0807"
           x="295.9791"
           height="0.23549631"
           width="4.9985557"
           id="rect2664"
           style="opacity:1;fill:#dbe3e2;fill-opacity:1;stroke:none;stroke-width:0.20391366;stroke-linecap:butt;stroke-linejoin:miter;stroke-miterlimit:4;stroke-dasharray:none;stroke-opacity:1;paint-order:markers fill stroke" />
        <path
           id="path2666"
           d="m 298.32415,-239.37014 v 4.87083 h 0.24415 v -4.87083 z"
           style="opacity:1;fill:#dbe3e2;fill-opacity:1;stroke:#282828;stroke-width:0;stroke-linecap:butt;stroke-linejoin:miter;stroke-miterlimit:4;stroke-dasharray:none;stroke-opacity:1;paint-order:markers fill stroke" />
        <path
           style="opacity:1;fill:#4bb4b2;fill-opacity:1;stroke:#1f1f1f;stroke-width:0.0682625;stroke-miterlimit:4;stroke-dasharray:none;stroke-opacity:1"
           d="m 298.57343,-238.57784 -10e-4,0.83818 a 0.82718036,0.79914233 0 0 1 0.70078,0.65067 h 0.85491 a 1.6543615,1.598285 0 0 0 -1.55401,-1.48885 z m -0.24377,0.002 a 1.6543615,1.598285 0 0 0 -1.50172,1.48643 h 0.81673 a 0.82718036,0.79914233 0 0 1 0.68331,-0.64825 z m -1.49873,1.72193 a 1.6543615,1.598285 0 0 0 1.49226,1.45983 l 10e-4,-0.76779 a 0.82718036,0.79914233 0 0 1 -0.68665,-0.69204 z m 2.44794,0 a 0.82718036,0.79914233 0 0 1 -0.71047,0.69587 l -10e-4,0.76731 a 1.6543615,1.598285 0 0 0 1.55964,-1.46318 z"
           id="path2668" />
        <path
           id="path2670"
           d="m 297.64907,-237.09842 c 0.0141,-0.0602 0.0267,-0.10204 0.0404,-0.13549 0.10247,-0.24927 0.3146,-0.42749 0.58304,-0.4899 0.0239,-0.006 0.0453,-0.0105 0.0474,-0.0105 0.002,-1e-5 0.004,0.0471 0.004,0.10484 0,0.097 -7e-4,0.10483 -0.01,0.10483 -0.0389,0 -0.17394,0.0602 -0.2349,0.10449 -0.0993,0.0723 -0.18125,0.18539 -0.21715,0.29957 l -0.0109,0.0363 h -0.10272 -0.10272 z"
           style="opacity:1;fill:#dbe3e2;fill-opacity:1;stroke:none;stroke-width:0.00419695;stroke-linecap:butt;stroke-linejoin:miter;stroke-miterlimit:4;stroke-dasharray:none;stroke-opacity:1;paint-order:markers fill stroke" />
        <path
           id="path2672"
           d="m 298.24652,-236.18013 c -0.25185,-0.0667 -0.4592,-0.24528 -0.55365,-0.47668 -0.0188,-0.046 -0.0424,-0.12689 -0.0486,-0.16642 l -0.004,-0.0197 0.34283,0.001 c 0.29751,0.001 0.31104,0.001 0.10236,0.002 l -0.24049,0.001 0.004,0.017 c 0.008,0.0387 0.0373,0.11393 0.0581,0.15063 0.0809,0.14303 0.22971,0.25789 0.3792,0.2927 l 0.0373,0.008 4e-5,0.10087 4e-5,0.10087 -0.015,-3.4e-4 c -0.008,-2.1e-4 -0.0365,-0.006 -0.0626,-0.0131 z"
           style="opacity:1;fill:#dbe3e2;fill-opacity:1;stroke:none;stroke-width:0.00419695;stroke-linecap:butt;stroke-linejoin:miter;stroke-miterlimit:4;stroke-dasharray:none;stroke-opacity:1;paint-order:markers fill stroke" />
        <path
           id="path2674"
           d="m 298.56824,-236.26204 v -0.10181 l 0.0529,-0.0143 c 0.16796,-0.0455 0.31654,-0.16743 0.38928,-0.31953 0.0161,-0.0336 0.0461,-0.12175 0.0461,-0.13529 0,-0.002 -0.10936,-0.005 -0.2455,-0.006 -0.20955,-0.001 -0.19367,-0.001 0.10851,-0.002 0.3045,-0.001 0.35401,-2.1e-4 0.35401,0.006 0,0.0166 -0.0174,0.087 -0.0331,0.13401 -0.0728,0.2183 -0.25228,0.40373 -0.47424,0.49007 -0.0507,0.0197 -0.1277,0.0408 -0.17227,0.0472 l -0.0257,0.004 z"
           style="opacity:1;fill:#dbe3e2;fill-opacity:1;stroke:none;stroke-width:0.00419695;stroke-linecap:butt;stroke-linejoin:miter;stroke-miterlimit:4;stroke-dasharray:none;stroke-opacity:1;paint-order:markers fill stroke" />
        <path
           id="path2676"
           d="m 299.03809,-237.12725 c -0.068,-0.19933 -0.2297,-0.34302 -0.4468,-0.39697 l -0.0231,-0.006 v -0.1039 -0.10378 l 0.0275,0.005 c 0.0488,0.007 0.11491,0.0259 0.17249,0.0479 0.24687,0.0948 0.43635,0.31195 0.49627,0.56875 l 0.007,0.0328 h -0.1096 -0.1096 z"
           style="opacity:1;fill:#dbe3e2;fill-opacity:1;stroke:none;stroke-width:0.00419695;stroke-linecap:butt;stroke-linejoin:miter;stroke-miterlimit:4;stroke-dasharray:none;stroke-opacity:1;paint-order:markers fill stroke" />
        <path
           id="path2678"
           d="m 300.12794,-237.08901 c 10e-4,-0.002 -3.5e-4,-0.0354 -0.005,-0.0725 -0.0369,-0.30661 -0.1554,-0.58166 -0.35473,-0.82399 -0.055,-0.0669 -0.18589,-0.19299 -0.25598,-0.2466 -0.0905,-0.0693 -0.19569,-0.13331 -0.30112,-0.18343 -0.10333,-0.0491 -0.16053,-0.071 -0.26514,-0.10169 -0.10405,-0.0304 -0.27858,-0.0606 -0.35095,-0.0606 h -0.0268 v -0.14127 -0.14128 l 0.0285,0.002 c 0.19791,0.0184 0.33445,0.0451 0.49315,0.0968 0.65868,0.21402 1.15893,0.74753 1.30938,1.39644 0.0159,0.0688 0.0323,0.16994 0.0384,0.23735 l 0.004,0.0433 h -0.15836 c -0.0992,0 -0.15717,-0.002 -0.15515,-0.005 z"
           style="opacity:1;fill:#dbe3e2;fill-opacity:1;stroke:none;stroke-width:0.00419695;stroke-linecap:butt;stroke-linejoin:miter;stroke-miterlimit:4;stroke-dasharray:none;stroke-opacity:1;paint-order:markers fill stroke" />
        <path
           id="path2680"
           d="m 298.56956,-234.94409 10e-4,-0.44424 0.0543,-0.004 c 0.16203,-0.0118 0.35466,-0.0592 0.51633,-0.12735 0.42726,-0.17987 0.76818,-0.54163 0.90988,-0.96543 0.0358,-0.10717 0.074,-0.28108 0.074,-0.33729 v -0.0205 h 0.15733 0.15734 v 0.0208 c 0,0.031 -0.0198,0.17392 -0.0321,0.23156 -0.12257,0.57435 -0.50565,1.05285 -1.05027,1.31192 -0.24209,0.11522 -0.48044,0.17757 -0.75687,0.19816 l -0.019,10e-4 -0.001,0.28959 c -10e-4,0.18813 -0.004,0.28961 -0.007,0.28961 -0.004,0 -0.005,-0.15151 -0.004,-0.44423 z"
           style="opacity:1;fill:#dbe3e2;fill-opacity:1;stroke:none;stroke-width:0.00419695;stroke-linecap:butt;stroke-linejoin:miter;stroke-miterlimit:4;stroke-dasharray:none;stroke-opacity:1;paint-order:markers fill stroke" />
        <path
           id="path2682"
           d="m 298.2427,-235.08756 c -0.77884,-0.0865 -1.40694,-0.59949 -1.62788,-1.32944 -0.0346,-0.11439 -0.0601,-0.24934 -0.0733,-0.38788 l -0.004,-0.038 h 0.14704 0.14704 v 0.0163 c 0,0.0264 0.0158,0.12299 0.0307,0.18806 0.0883,0.38543 0.32032,0.7246 0.65295,0.95476 0.2301,0.15921 0.48475,0.25398 0.77993,0.29025 l 0.0285,0.003 v 0.15414 0.15414 l -0.0204,-6.7e-4 c -0.0109,-3.3e-4 -0.0386,-0.002 -0.0611,-0.005 z"
           style="opacity:1;fill:#dbe3e2;fill-opacity:1;stroke:none;stroke-width:0.00419695;stroke-linecap:butt;stroke-linejoin:miter;stroke-miterlimit:4;stroke-dasharray:none;stroke-opacity:1;paint-order:markers fill stroke" />
        <path
           id="path2684"
           d="m 296.54164,-237.12725 c 0.0331,-0.38568 0.17365,-0.73561 0.41852,-1.04179 0.0581,-0.0726 0.21738,-0.22869 0.29236,-0.28644 0.25195,-0.19402 0.5256,-0.3166 0.83396,-0.37357 0.0681,-0.0126 0.18126,-0.0266 0.21439,-0.0266 h 0.0232 v 0.1389 c 0,0.0764 -0.001,0.13892 -0.004,0.13893 -0.018,1.1e-4 -0.15817,0.0229 -0.21014,0.0342 -0.50527,0.1095 -0.93463,0.45144 -1.14572,0.91249 -0.0724,0.15814 -0.12199,0.34198 -0.13522,0.50137 l -0.004,0.0458 h -0.1436 -0.1436 z"
           style="opacity:1;fill:#dbe3e2;fill-opacity:1;stroke:none;stroke-width:0.00419695;stroke-linecap:butt;stroke-linejoin:miter;stroke-miterlimit:4;stroke-dasharray:none;stroke-opacity:1;paint-order:markers fill stroke" />
      </g>
      <path
         style="opacity:1;fill:#3e9c98;fill-opacity:1;stroke:#000000;stroke-width:0.11509375;stroke-miterlimit:4;stroke-dasharray:none;stroke-opacity:1"
         d="m 292.17144,-239.88839 c 0,0 0.44096,-0.8242 0.59652,-1.26306 0.19945,-0.56266 0.42885,-1.73851 0.42583,-1.73952 h 10.55356 c 0,0 0.15398,1.03117 0.2984,1.53046 0.14627,0.50571 0.57194,1.47212 0.57194,1.47212 z"
         id="path2686" />
      <rect
         style="opacity:0.544;fill:#000000;fill-opacity:1;stroke:none;stroke-width:0.2038689;stroke-linecap:butt;stroke-linejoin:miter;stroke-miterlimit:4;stroke-dasharray:none;stroke-opacity:1;paint-order:markers fill stroke"
         id="rect2688"
         width="3.3569012"
         height="0.72760421"
         x="296.79214"
         y="-233.53319"
         ry="0.36380211" />
    </g>
  </g>
</svg>
