<?xml version="1.0" encoding="UTF-8" standalone="no"?>
<svg
   xmlns:dc="http://purl.org/dc/elements/1.1/"
   xmlns:cc="http://creativecommons.org/ns#"
   xmlns:rdf="http://www.w3.org/1999/02/22-rdf-syntax-ns#"
   xmlns:svg="http://www.w3.org/2000/svg"
   xmlns="http://www.w3.org/2000/svg"
   id="svg8"
   version="1.1"
   viewBox="0 0 15.311048 10.710249"
   height="10.710249mm"
   width="15.311048mm">
  <defs
     id="defs2">
    <pattern
       id="EMFhbasepattern"
       patternUnits="userSpaceOnUse"
       width="6"
       height="6"
       x="0"
       y="0" />
  </defs>
  <metadata
     id="metadata5">
    <rdf:RDF>
      <cc:Work
         rdf:about="">
        <dc:format>image/svg+xml</dc:format>
        <dc:type
           rdf:resource="http://purl.org/dc/dcmitype/StillImage" />
        <dc:title></dc:title>
      </cc:Work>
    </rdf:RDF>
  </metadata>
  <g
     transform="translate(-80.790905,-116.26392)"
     id="layer1">
    <path
       style="fill:#3b3b3b;fill-opacity:1;fill-rule:nonzero;stroke:#000000;stroke-width:0.12699907px;stroke-linecap:butt;stroke-linejoin:miter;stroke-miterlimit:4;stroke-dasharray:none;stroke-opacity:1"
       d="m 83.449097,116.32742 h 10.583255 v 10.58325 H 83.449097 Z"
       id="path4521" />
    <path
       style="fill:#2a6967;fill-opacity:1;fill-rule:nonzero;stroke:none;stroke-width:0.26458332"
       d="m 83.470264,116.32742 -2.603481,1.79915 1.75682,-0.127 0.91016,-1.01599 -0.08467,-0.59266 z"
       id="path4523" />
    <path
       style="fill:none;stroke:#000000;stroke-width:0.04233302px;stroke-linecap:butt;stroke-linejoin:miter;stroke-miterlimit:4;stroke-dasharray:none;stroke-opacity:1"
       d="m 83.470264,116.32742 -2.603481,1.79915 1.75682,-0.127 0.91016,-1.01599 -0.08467,-0.59266"
       id="path4525" />
    <path
       style="fill:#2b6d6b;fill-opacity:1;fill-rule:nonzero;stroke:none;stroke-width:0.26458332"
       d="m 94.011186,116.32742 2.074318,2.56115 -1.227658,-0.97366 -0.825494,-1.22766 v -0.29633 z"
       id="path4527" />
    <path
       style="fill:none;stroke:#000000;stroke-width:0.04233302px;stroke-linecap:butt;stroke-linejoin:miter;stroke-miterlimit:4;stroke-dasharray:none;stroke-opacity:1"
       d="m 94.011186,116.32742 2.074318,2.56115 -1.227658,-0.97366 -0.825494,-1.22766 v -0.29633"
       id="path4529" />
    <path
       style="fill:#dbe3e2;fill-opacity:1;fill-rule:nonzero;stroke:none;stroke-width:0.26458332"
       d="m 91.767536,121.68255 c 0,1.69332 -1.354657,3.06914 -3.047978,3.06914 -1.693321,0 -3.069144,-1.37582 -3.069144,-3.06914 0,-1.67216 1.375823,-3.04798 3.069144,-3.04798 1.693321,0 3.047978,1.37582 3.047978,3.04798 z"
       id="path4531" />
    <path
       style="fill:#3e9c98;fill-opacity:1;fill-rule:nonzero;stroke:#282828;stroke-width:0.06349953px;stroke-linecap:butt;stroke-linejoin:miter;stroke-miterlimit:4;stroke-dasharray:none;stroke-opacity:1"
       d="m 88.550226,117.78791 0.02117,0.84666 c -1.566321,0.0847 -2.815145,1.31232 -2.899811,2.87865 l -0.867827,-0.0212 v 0.35983 l 0.867827,-0.0212 c 0.0635,1.56632 1.312323,2.81515 2.878645,2.89981 l -0.02117,0.86783 h 0.359831 l -0.02117,-0.84666 c 1.566321,-0.0847 2.815146,-1.33349 2.899812,-2.92098 l 0.867826,0.0212 v -0.35983 l -0.867826,0.0212 c -0.08467,-1.54515 -1.333491,-2.79397 -2.878646,-2.87864 l 0.02117,-0.84666 z m 0.02117,1.18532 h 0.296332 v 0.5715 c 1.079491,0.0635 1.926152,0.93133 2.010818,1.98965 h 0.571496 v 0.29633 h -0.571496 c -0.08467,1.07949 -0.931327,1.92616 -2.010818,2.01082 v 0.5715 h -0.296332 v -0.5715 c -1.079492,-0.0635 -1.926152,-0.93133 -2.010818,-2.01082 h -0.571496 v -0.29633 h 0.571496 c 0.08467,-1.05832 0.931326,-1.92615 2.010818,-1.98965 z"
       id="path4533" />
    <path
       style="fill:#3e9c98;fill-opacity:1;fill-rule:nonzero;stroke:#282828;stroke-width:0.06349953px;stroke-linecap:butt;stroke-linejoin:miter;stroke-miterlimit:4;stroke-dasharray:none;stroke-opacity:1"
       d="m 88.571392,121.04755 c -0.253998,0.0423 -0.444496,0.254 -0.507996,0.48683 h 0.507996 z m 0.296332,0 v 0.48683 h 0.507996 c -0.0635,-0.23283 -0.253998,-0.44449 -0.507996,-0.48683 z m -0.804328,0.78316 c 0.0635,0.254 0.253998,0.46567 0.507996,0.508 v -0.508 z m 0.804328,0 v 0.508 c 0.253998,-0.0423 0.444496,-0.254 0.507996,-0.508 z"
       id="path4535" />
    <path
       style="fill:#3e9c98;fill-opacity:1;fill-rule:nonzero;stroke:#282828;stroke-width:0.06349953px;stroke-linecap:butt;stroke-linejoin:miter;stroke-miterlimit:4;stroke-dasharray:none;stroke-opacity:1"
       d="m 88.571392,119.88339 c -0.888993,0.0847 -1.587488,0.78316 -1.650987,1.65099 h 0.825493 c 0.0635,-0.40216 0.402164,-0.74083 0.825494,-0.80433 z m 0.296332,0 v 0.84666 c 0.42333,0.0635 0.740827,0.40217 0.804327,0.80433 h 0.84666 c -0.08467,-0.86783 -0.783161,-1.56632 -1.650987,-1.65099 z m -1.947319,1.94732 c 0.0635,0.889 0.761994,1.58749 1.650987,1.65099 v -0.82549 c -0.42333,-0.0635 -0.761994,-0.40217 -0.825494,-0.8255 z m 2.751646,0 c -0.0635,0.42333 -0.380997,0.762 -0.804327,0.8255 v 0.82549 c 0.867826,-0.0635 1.566321,-0.76199 1.650987,-1.65099 z"
       id="path4537" />
    <path
       style="fill:#dbe3e2;fill-opacity:1;fill-rule:nonzero;stroke:none;stroke-width:0.26458332"
       d="m 85.24825,118.52874 v 0.29633 1.39699 h 0.317498 v -1.39699 h 1.375823 v -0.29633 h -1.375823 z"
       id="path4539" />
    <path
       style="fill:#dbe3e2;fill-opacity:1;fill-rule:nonzero;stroke:none;stroke-width:0.26458332"
       d="m 85.24825,124.77286 h 0.317498 1.375823 v -0.29633 h -1.375823 v -1.39699 H 85.24825 v 1.39699 z"
       id="path4541" />
    <path
       style="fill:#dbe3e2;fill-opacity:1;fill-rule:nonzero;stroke:none;stroke-width:0.26458332"
       d="m 92.296698,124.77286 v -0.29633 -1.39699 h -0.317497 v 1.39699 h -1.375824 v 0.29633 h 1.375824 z"
       id="path4543" />
    <path
       style="fill:#dbe3e2;fill-opacity:1;fill-rule:nonzero;stroke:none;stroke-width:0.26458332"
       d="m 92.296698,118.52874 h -0.317497 -1.375824 v 0.29633 h 1.375824 v 1.39699 h 0.317497 v -1.39699 z"
       id="path4545" />
    <path
       style="fill:#3e9c98;fill-opacity:1;fill-rule:nonzero;stroke:#000000;stroke-width:0.10583255px;stroke-linecap:butt;stroke-linejoin:miter;stroke-miterlimit:4;stroke-dasharray:none;stroke-opacity:1"
       d="m 82.433105,119.33306 c 0,0 0.402163,-0.93132 0.571495,-1.41815 0.169332,-0.52916 0.465664,-1.58749 0.465664,-1.58749 h 10.540922 c 0,0 0.148165,1.03716 0.296331,1.52399 0.148165,0.508 0.571495,1.48165 0.571495,1.48165 z"
       id="path4547" />
    <path
       style="fill:#000000;fill-opacity:1;fill-rule:nonzero;stroke:none;stroke-width:0.26458332"
       d="m 87.428401,125.68302 h 2.624647 c 0.211665,0 0.359831,0.16933 0.359831,0.35983 0,0.21166 -0.148166,0.381 -0.359831,0.381 h -2.624647 c -0.211665,0 -0.359831,-0.16934 -0.359831,-0.381 0,-0.1905 0.148166,-0.35983 0.359831,-0.35983 z"
       id="path4549" />
  </g>
</svg>
