<?xml version="1.0" encoding="UTF-8" standalone="no"?>
<svg
   xmlns:dc="http://purl.org/dc/elements/1.1/"
   xmlns:cc="http://creativecommons.org/ns#"
   xmlns:rdf="http://www.w3.org/1999/02/22-rdf-syntax-ns#"
   xmlns:svg="http://www.w3.org/2000/svg"
   xmlns="http://www.w3.org/2000/svg"
   id="svg8"
   version="1.1"
   viewBox="0 0 39.687499 39.687501"
   height="150"
   width="150">
  <defs
     id="defs2" />
  <metadata
     id="metadata5">
    <rdf:RDF>
      <cc:Work
         rdf:about="">
        <dc:format>image/svg+xml</dc:format>
        <dc:type
           rdf:resource="http://purl.org/dc/dcmitype/StillImage" />
        <dc:title></dc:title>
      </cc:Work>
    </rdf:RDF>
  </metadata>
  <g
     transform="translate(0,-257.31248)"
     id="layer1">
    <g
       style="display:inline;fill:#0d0c06;fill-opacity:0.70854277"
       transform="translate(-226.71443,564.57367)"
       id="g2117">
      <path
         style="fill:#0d0c06;fill-opacity:0.70854277;stroke:#000000;stroke-width:0.1094077px;stroke-linecap:butt;stroke-linejoin:miter;stroke-opacity:1"
         d="m 228.63199,-292.71403 15.71949,23.74079"
         id="path2081" />
      <path
         style="fill:#0d0c06;fill-opacity:0.70854277;stroke:#000000;stroke-width:0.1094077px;stroke-linecap:butt;stroke-linejoin:miter;stroke-opacity:1"
         d="m 247.15609,-267.65132 c 0,0 -1.71722,-4.09521 -4.02817,-0.0307"
         id="path2083" />
      <path
         style="fill:#0d0c06;fill-opacity:0.70854277;stroke:#000000;stroke-width:0.1094077px;stroke-linecap:butt;stroke-linejoin:miter;stroke-opacity:1"
         d="m 262.02653,-292.87784 -15.08966,24.55081"
         id="path2085" />
      <path
         transform="scale(0.26458334)"
         id="path2087"
         d="m 931.82422,-1159.166 c -1.09729,-0.01 -2.36928,0.01 -3.55078,0.043 -30.20825,1.4685 -56.95807,23.6353 -61.28906,41.9589 -0.88906,3.7615 -3.1174,10.6095 -2.86349,10.8435 v -10e-5 l 2.0295,2.5961 c 0.86313,1.3027 1.64531,2.3977 1.73828,2.4355 0.093,0.037 0.19841,-0.1597 0.23242,-0.4375 0.0469,-0.3702 0.21138,-0.524 0.61719,-0.5761 0.30444,-0.039 0.70014,0.01 0.87891,0.098 0.17888,0.093 0.41414,0.1803 0.52148,0.1992 0.9851,0.1641 3.83329,1.6657 4.60352,2.4258 0.16974,0.1675 0.37867,0.3028 0.46484,0.3028 0.0861,0 0.81009,0.6412 1.60742,1.4238 0.79733,0.7825 1.52623,1.4219 1.6211,1.4219 0.0947,0 0.36981,0.3953 0.61133,0.8769 0.24147,0.4816 0.5474,0.875 0.67968,0.875 0.1324,0 0.41448,0.2656 0.625,0.5899 l 0.38282,0.5898 0.14453,-0.7363 c 0.12434,-0.6335 0.1697,-0.6809 0.33789,-0.3438 0.12661,0.2545 0.12825,0.4394 0.004,0.5293 -0.4385,0.3167 -0.0454,1.4947 0.63477,1.9043 0.31506,0.1897 1.31656,1.8433 2.42578,4.0039 0.11977,0.2332 0.24408,0.2431 0.56836,0.049 0.34197,-0.2052 0.4828,-0.1697 0.80859,0.1954 0.57865,0.6487 0.51547,1.2708 -0.14062,1.3672 l -0.53711,0.08 0.49414,0.2774 c 0.48144,0.27 2.37764,3.5522 4,6.9258 1.16916,2.4312 1.87266,3.6113 2.15234,3.6113 0.34723,0 0.78459,0.7309 2.22852,3.7207 0.6686,1.3845 1.46282,2.8144 1.76367,3.1758 0.30078,0.3611 0.69478,0.9876 0.87695,1.3925 0.18221,0.405 0.73219,1.3886 1.22266,2.1875 0.49047,0.799 1.1052,1.9715 1.36523,2.6036 0.26019,0.632 0.54797,1.1484 0.63868,1.1484 0.0908,0 0.36603,0.3688 0.61132,0.8203 0.24533,0.4515 0.90155,1.5108 1.45899,2.3535 0.5574,0.8427 1.29839,2.1726 1.64648,2.9551 0.3481,0.7826 0.891,1.842 1.20508,2.3555 0.31419,0.5135 0.83915,1.5482 1.16797,2.2988 0.32878,0.7507 0.71203,1.5127 0.84961,1.6934 0.1378,0.1805 0.70276,1.2153 1.25586,2.2988 0.55313,1.0835 1.26335,2.1988 1.58008,2.4785 0.31691,0.2796 0.57617,0.5962 0.57617,0.7031 0,0.6509 0.90117,2.6998 1.45703,3.3145 0.62211,0.688 2.63063,4.369 3.06641,5.6191 0.29064,0.8338 0.39682,2.3888 0.17382,2.543 -0.30436,0.2108 -1.35449,-1.1756 -2.20507,-2.9102 -0.48265,-0.9843 -0.96093,-1.6778 -1.24024,-1.7968 -0.29106,-0.1241 -0.89163,-1.0316 -1.66601,-2.5196 -0.74211,-1.4259 -1.3777,-2.396 -1.64454,-2.5097 -0.23924,-0.102 -0.77192,-0.8078 -1.18359,-1.5684 -0.4117,-0.7606 -1.19007,-1.8765 -1.73047,-2.4785 -0.54036,-0.6019 -1.31344,-1.735 -1.71679,-2.5176 -0.63629,-1.2344 -2.6836,-3.8523 -2.6836,-3.4316 0,0.1299 6.9561,10.7054 15.375,23.375 1.65475,2.4901 2.808,4.0158 3.25977,4.3144 0.53529,0.3541 0.69884,0.6057 0.69922,1.0723 4.1e-4,0.4185 0.48912,1.3464 1.56054,2.9629 0.85784,1.2942 1.60252,2.3515 1.6543,2.3515 0.0519,0 0.47423,-0.2057 0.93945,-0.4589 0.7567,-0.4122 0.84829,-0.5447 0.86719,-1.252 0.0135,-0.5319 0.15971,-0.919 0.44922,-1.1816 0.5633,-0.5112 0.711,-0.4932 1.23828,0.1445 l 0.44141,0.5332 -0.0117,-1.0195 c -0.009,-0.7882 0.064,-1.0383 0.31836,-1.0957 0.23743,-0.054 0.38655,0.1563 0.5332,0.7519 0.17537,0.712 0.14938,0.8878 -0.18359,1.2852 -0.51961,0.6199 -0.48665,1.1245 0.084,1.2851 0.25856,0.073 0.59252,0.1838 0.74219,0.2481 0.22223,0.095 0.26083,-0.1997 0.21094,-1.586 -0.0321,-0.9367 -0.0504,-2.1949 -0.0391,-2.7968 0.0113,-0.602 0.0203,-1.9318 0.0195,-2.9551 -7.2e-4,-1.0233 -0.002,-2.5499 -0.002,-3.3926 -3.8e-4,-1.9048 -0.009,-2.2115 -0.12695,-4.3789 -0.0525,-0.9631 -0.13074,-3.1949 -0.17383,-4.959 -0.0431,-1.7642 -0.13264,-3.3024 -0.19726,-3.4199 -0.065,-0.1175 -0.11499,-1.2851 -0.10743,-2.5938 0.0144,-3.1283 -0.0193,-6.0825 -0.082,-7.3046 -0.028,-0.5418 0.029,-1.1929 0.125,-1.4473 0.11981,-0.3176 0.0805,-0.6674 -0.12695,-1.1172 -0.1663,-0.36 -0.30311,-0.8397 -0.30274,-1.0684 3.8e-4,-0.2285 -0.0514,-2.2887 -0.11718,-4.5761 -0.0669,-2.2874 -0.10093,-4.6008 -0.082,-5.1426 0.0227,-0.5418 0.0288,-1.1338 0.0137,-1.3145 -0.0514,-0.682 -0.25166,-3.8885 -0.33594,-5.3613 -0.0484,-0.8427 -0.12904,-2.025 -0.17969,-2.6269 -0.21732,-2.5783 -0.30369,-4.6597 -0.3789,-9.1934 -0.0863,-5.1992 0.081,-6.8276 0.83789,-8.209 0.23089,-0.4213 0.51489,-1.038 0.63281,-1.3691 0.11785,-0.331 0.29387,-0.6016 0.39062,-0.6016 0.0968,0 0.17774,-0.1434 0.17774,-0.3203 0,-0.177 0.26077,-0.5406 0.58203,-0.8066 0.32118,-0.2662 0.62879,-0.6409 0.68359,-0.834 0.0547,-0.193 0.35786,-0.5234 0.67383,-0.7324 0.31582,-0.2092 0.62634,-0.5618 0.68945,-0.7852 0.0632,-0.2233 0.6178,-0.7077 1.23243,-1.0762 0.61459,-0.3683 1.43471,-1.0972 1.82226,-1.6191 0.45237,-0.6093 1.28924,-1.3002 2.33594,-1.9297 0.89666,-0.5393 1.85369,-1.1874 2.12695,-1.4414 0.79431,-0.7383 1.68902,-1.1786 2.68946,-1.3203 0.51205,-0.073 1.10758,-0.2514 1.32226,-0.3985 0.6011,-0.4108 1.65032,-0.5775 2.06641,-0.3281 0.42822,0.2569 0.46686,0.1531 0.15429,-0.4082 -0.16856,-0.3027 -0.14631,-0.5485 0.0918,-1.0644 l 0.3086,-0.67 2.10742,0.037 c 2.29614,0.041 3.00675,0.2965 3.75,1.3555 0.52259,0.7451 0.51526,1.1497 -0.0234,1.3731 -0.35928,0.1493 -0.28678,0.1967 0.43945,0.2968 0.47826,0.066 1.17667,0.2861 1.55274,0.4883 1.58502,0.8518 2.14843,1.2272 2.14843,1.4317 1e-5,0.1194 0.17476,0.2168 0.38868,0.2168 0.21388,0 0.49864,0.1967 0.63281,0.4375 0.13413,0.2409 0.39772,0.4375 0.58594,0.4375 0.18807,0 0.45176,0.1967 0.58593,0.4375 0.13418,0.2408 0.39728,0.4394 0.58399,0.4394 0.18652,0 0.48245,0.246 0.6582,0.5469 0.17594,0.3008 0.44093,0.5469 0.58985,0.5469 0.1488,0 0.42714,0.1755 0.61914,0.3906 0.19188,0.2151 0.67488,0.6174 1.07226,0.8926 0.86858,0.6016 2.73053,2.5832 3.03516,3.2304 0.41612,0.8844 0.49571,3.7938 0.14648,5.336 -0.17745,0.7825 -0.37602,1.5713 -0.4414,1.7519 -0.0658,0.1806 -0.13332,0.4263 -0.14844,0.5469 -0.0158,0.1204 -0.44954,1.1551 -0.96484,2.2988 -1.44711,3.2115 -1.53482,3.387 -1.71094,3.4649 -0.0907,0.04 -0.16406,0.1976 -0.16406,0.3496 -1e-5,0.3623 -0.56022,1.6128 -0.79493,1.7754 -0.20179,0.1397 -0.96289,1.9232 -0.96289,2.2558 0,0.3533 -1.95885,4.5824 -2.24609,4.8496 -0.14929,0.1385 -0.22265,0.3897 -0.16406,0.5606 0.0586,0.1708 -0.0347,0.3712 -0.20703,0.4453 -0.17197,0.074 -0.31862,0.2965 -0.32618,0.4941 -0.008,0.1978 -0.17733,0.6563 -0.375,1.0176 -0.19774,0.3612 -1.07244,2.2319 -1.94336,4.1582 -0.87091,1.9263 -1.66307,3.6494 -1.76172,3.8301 -0.0984,0.1806 -0.41027,0.871 -0.69335,1.5332 -0.53568,1.2535 -0.83217,1.8501 -1.46875,2.9551 -0.42263,0.7335 -1.1626,2.4466 -1.56055,3.6113 -0.144,0.4213 -0.46615,1.1101 -0.71485,1.5293 -0.24888,0.4192 -0.45312,0.8717 -0.45312,1.0059 0,0.2694 -0.40437,1.1629 -0.98438,2.1718 -0.2076,0.3612 -0.43675,0.8038 -0.50781,0.9844 -0.071,0.1806 -0.23641,0.4756 -0.36719,0.6563 -0.35731,0.4931 -1.26448,2.3959 -1.23046,2.5781 0.0758,0.4017 -1.04027,2.925 -2.19922,4.9746 -0.52468,0.9279 -1.20878,2.5184 -1.43555,3.3379 -0.0752,0.271 -0.2182,0.4922 -0.31836,0.4922 -0.10016,0 -0.18971,0.1723 -0.19726,0.3828 -0.008,0.2107 -0.18112,0.6777 -0.38672,1.039 -0.20587,0.3612 -0.42794,0.8057 -0.49219,0.9864 -0.14389,0.4036 -1.03847,2.4105 -1.63477,3.6679 -0.24291,0.5123 -0.51885,0.9863 -0.61523,1.0528 -0.0964,0.067 -0.17578,0.2987 -0.17578,0.5156 0,0.2169 -0.2171,0.7513 -0.48242,1.1895 -0.26533,0.4379 -0.42464,0.7968 -0.35547,0.7968 0.0692,0 -0.0554,0.2212 -0.27539,0.4922 -0.42822,0.527 -0.90544,1.448 -0.93946,1.8067 -0.05,0.5558 -0.50372,1.4177 -0.85937,1.6308 -0.21619,0.1296 -0.34613,0.3724 -0.28906,0.5391 0.0571,0.1665 0.007,0.3683 -0.10938,0.4492 -0.11527,0.081 -0.16487,0.232 -0.10742,0.3359 0.0573,0.104 -0.134,0.7625 -0.42578,1.4629 -0.29163,0.7004 -0.51915,1.3224 -0.50781,1.3828 0.0125,0.06 -0.21566,0.5031 -0.50782,0.9844 l -0.53125,0.875 0.79102,1.1035 0.79101,1.1016 0.52149,-0.7715 c 0.28637,-0.4239 0.48241,-0.8407 0.43555,-0.9258 -0.0469,-0.085 0.0697,-0.2549 0.25976,-0.3789 0.18943,-0.1243 0.27764,-0.2289 0.19336,-0.2324 -0.0843,0 -0.0582,-0.207 0.0586,-0.4512 0.11664,-0.2441 0.29444,-0.3851 0.39649,-0.3144 0.10205,0.071 0.19582,0.024 0.21094,-0.1035 0.0147,-0.1277 0.0337,-0.3192 0.0488,-0.4258 0.0134,-0.1067 0.26298,-0.4638 0.55664,-0.793 0.29371,-0.3292 0.4879,-0.6852 0.42969,-0.791 -0.0582,-0.1058 -0.0117,-0.1914 0.10547,-0.1914 0.11717,0 0.27112,-0.1743 0.3418,-0.3848 0.0703,-0.2106 0.23074,-0.481 0.35547,-0.6015 0.12472,-0.1204 2.42147,-3.8128 5.10547,-8.2071 6.99023,-11.4443 6.73222,-11.0237 10.08984,-16.4726 1.6876,-2.7387 3.11316,-5.1101 3.16797,-5.2696 0.0578,-0.1687 -0.12538,-0.4038 -0.43945,-0.5644 -0.41753,-0.2128 -0.55867,-0.2158 -0.61915,-0.012 -0.0432,0.1451 -0.2639,0.471 -0.49218,0.7246 -0.42709,0.4745 -0.63905,0.8343 -1.20117,2.0469 -0.17904,0.3861 -0.5376,0.9398 -0.79688,1.2304 -0.2592,0.2906 -0.57412,0.8627 -0.69922,1.2696 -0.22035,0.7161 -0.82284,1.8156 -1.24414,2.2695 -0.11301,0.1218 -0.46207,0.6515 -0.77539,1.1777 -0.31336,0.5262 -0.77437,1.1062 -1.02344,1.2891 -0.24911,0.1829 -0.62094,0.7449 -0.82617,1.25 -0.2053,0.5051 -0.50948,1.0462 -0.67578,1.2012 -0.16668,0.1548 -0.30274,0.4152 -0.30274,0.58 10e-6,0.1649 -0.17594,0.4238 -0.39062,0.5743 -0.21483,0.1503 -0.39062,0.405 -0.39062,0.5664 0,0.4109 -1.31498,2.5869 -2.0586,3.4062 -0.34087,0.3756 -0.77845,1.0771 -0.97461,1.5586 -0.46707,1.1479 -1.42131,2.5156 -1.7539,2.5156 -0.14468,0 -0.32033,0.2036 -0.39063,0.4512 -0.18996,0.6709 -0.57448,0.3883 -0.64062,-0.4707 -0.0592,-0.7691 0.26071,-1.7655 0.9414,-2.9355 0.21014,-0.3612 0.5258,-1.0005 0.70117,-1.4219 0.17545,-0.4214 0.39172,-0.9131 0.48243,-1.0938 0.0907,-0.1806 0.44625,-0.9482 0.78906,-1.7051 0.34261,-0.7569 0.6964,-1.4274 0.78711,-1.4902 0.0907,-0.063 0.16406,-0.2953 0.16406,-0.5176 0,-0.3504 0.60575,-1.7526 2.44336,-5.6562 0.24359,-0.5174 0.59933,-1.1321 0.78906,-1.3672 0.19004,-0.235 0.27248,-0.4277 0.18555,-0.4277 -0.0869,0 -0.0234,-0.1723 0.14062,-0.3829 0.16392,-0.2106 0.49117,-1.024 0.72852,-1.8066 0.2372,-0.7825 0.60885,-1.7455 0.82617,-2.1406 0.21714,-0.3951 0.65026,-1.3069 0.96094,-2.0254 0.31049,-0.7185 0.65696,-1.3066 0.77148,-1.3066 0.1149,0 0.15769,-0.091 0.0957,-0.2032 -0.062,-0.1122 0.0647,-0.5303 0.28125,-0.9297 0.2166,-0.3993 0.49145,-0.997 0.60937,-1.3281 0.11781,-0.331 0.29387,-0.6035 0.39063,-0.6035 0.0967,0 0.17578,-0.1328 0.17578,-0.2949 0,-0.3022 0.36341,-1.2779 0.91015,-2.4414 0.16974,-0.3612 1.08898,-2.3699 2.04297,-4.4649 0.95403,-2.095 1.84107,-3.9516 1.97071,-4.1269 0.41797,-0.5645 0.80376,-1.3811 1.6289,-3.4473 0.19227,-0.4815 0.37394,-1.0131 0.40039,-1.1816 0.0284,-0.1687 0.12893,-0.3653 0.22266,-0.4375 0.0937,-0.072 0.28966,-0.4751 0.43555,-0.8965 0.14589,-0.4214 0.3691,-0.9151 0.49609,-1.0957 0.12699,-0.1806 0.2887,-0.4756 0.35937,-0.6563 0.0708,-0.1806 0.47588,-0.9183 0.9004,-1.6406 0.42451,-0.7223 0.9173,-1.6587 1.0957,-2.0801 0.6757,-1.5974 0.92435,-2.141 1.95117,-4.2695 0.5808,-1.2039 1.14745,-2.3842 1.25781,-2.625 0.11048,-0.2408 0.37233,-0.7344 0.58399,-1.0957 0.21157,-0.3612 0.46908,-0.8697 0.57226,-1.1309 0.10288,-0.2611 0.30888,-0.5564 0.45703,-0.6562 0.14846,-0.1 0.32858,-0.3311 0.40039,-0.5117 0.0718,-0.1806 0.20586,-0.4756 0.29883,-0.6563 0.0929,-0.1806 0.32514,-0.6724 0.51563,-1.0937 0.19067,-0.4214 0.45888,-0.8687 0.5957,-0.9942 0.13697,-0.1255 0.45532,-0.6489 0.70703,-1.1621 0.25153,-0.5132 0.5491,-1.1157 0.66211,-1.3398 0.42267,-0.8391 2.49109,-3.4712 2.93945,-3.7403 0.25618,-0.1536 0.59964,-0.5086 0.76368,-0.789 0.16399,-0.2806 0.82454,-0.8064 1.46679,-1.1699 0.6423,-0.3634 1.16797,-0.8035 1.16797,-0.9766 0,-0.4139 4.15444,-2.7422 4.89258,-2.7422 0.31041,0 1.03223,-0.2334 1.60547,-0.5176 0.57328,-0.2842 1.5487,-0.5636 2.16601,-0.6211 1.01753,-0.095 1.15764,-0.053 1.50196,0.4375 0.20885,0.2976 0.3789,0.6079 0.3789,0.6914 0,0.2792 -1.25321,2.3039 -1.60546,2.5938 -0.19125,0.1573 -0.34766,0.4228 -0.34766,0.5898 0,0.167 -0.16826,0.4355 -0.375,0.5977 -0.20674,0.1623 -0.52442,0.7101 -0.70508,1.2168 -0.18093,0.5067 -0.40595,0.9219 -0.50195,0.9219 -0.096,0 -0.17578,0.1361 -0.17578,0.3046 0,0.2879 -1.01697,1.9747 -1.92969,3.1973 -0.22473,0.301 -0.58497,0.7831 -0.80078,1.0723 -0.21585,0.2893 -0.39258,0.6186 -0.39258,0.7304 0,0.1118 -0.30753,0.6226 -0.68359,1.1368 -0.37588,0.5142 -0.6836,1.0426 -0.6836,1.1718 0,0.1294 -0.21955,0.4275 -0.48828,0.6641 -0.26861,0.2367 -0.48828,0.5791 -0.48828,0.7598 0,0.1802 -0.1336,0.3847 -0.29688,0.455 -0.25508,0.1098 -1.16236,1.572 -1.16992,1.8887 -0.008,0.2949 -1.31933,2.627 -1.47656,2.627 -0.0994,0 -0.18164,0.1483 -0.18164,0.3301 0,0.1817 -0.17595,0.5006 -0.39063,0.707 -0.21482,0.2061 -0.39062,0.4838 -0.39062,0.6191 0,0.1352 -0.17595,0.4245 -0.39063,0.6426 -0.21482,0.2179 -0.39062,0.5284 -0.39062,0.6895 0,0.1608 -0.17595,0.414 -0.39063,0.5644 -0.21482,0.1504 -0.39062,0.3826 -0.39062,0.5156 0,0.133 -0.17595,0.4206 -0.39063,0.6387 -0.21482,0.2179 -0.39062,0.5264 -0.39062,0.6855 0,0.1592 -0.21956,0.4492 -0.48828,0.6465 -0.26865,0.1973 -0.48828,0.4943 -0.48828,0.6602 0,0.1657 -0.17595,0.4257 -0.39063,0.5762 -0.21483,0.1503 -0.39062,0.4405 -0.39062,0.6464 0,0.2058 -0.12138,0.4525 -0.26953,0.5489 -0.14816,0.096 -0.43616,0.52 -0.64063,0.9414 -0.36642,0.7551 -1.0982,2.1256 -1.58398,2.9648 -0.13675,0.2362 -0.43131,0.7494 -0.6543,1.1406 -0.22307,0.3913 -0.48332,0.711 -0.58008,0.711 -0.0968,0 -0.17773,0.1091 -0.17773,0.2422 0,0.2292 -0.63151,1.207 -1.26953,1.9648 -0.16026,0.1908 -0.29297,0.4467 -0.29297,0.5684 0,0.1217 -0.174,0.3991 -0.38867,0.6172 -0.21483,0.2179 -0.39063,0.5227 -0.39063,0.6777 0,0.1551 -0.15395,0.4111 -0.3418,0.5684 -0.18799,0.1573 -0.37028,0.4285 -0.40429,0.6035 -0.0341,0.1749 -0.23196,0.4523 -0.43946,0.6152 -0.20749,0.1629 -0.37695,0.4366 -0.37695,0.6074 0,0.171 -0.21874,0.4715 -0.48633,0.668 -0.26763,0.1964 -0.44436,0.4336 -0.39258,0.5273 0.0514,0.094 -0.0419,0.2954 -0.20703,0.4493 -0.16524,0.1537 -0.47717,0.6818 -0.69336,1.1738 -0.2163,0.492 -0.50122,1.0913 -0.63086,1.332 -0.79562,1.4774 -1.32985,2.2988 -1.49804,2.2988 -0.10583,10e-5 -0.19336,0.1467 -0.19336,0.3262 0,0.1796 -0.17595,0.4492 -0.39063,0.5996 -0.21483,0.1504 -0.39062,0.4473 -0.39062,0.6582 0,0.2109 -0.17595,0.5059 -0.39063,0.6563 -0.21483,0.1502 -0.39062,0.3586 -0.39062,0.4629 0,0.189 -0.48451,0.9001 -1.57422,2.3125 -0.68716,0.8904 -0.61422,1.1342 0.14062,0.4687 0.49172,-0.4335 0.56254,-0.4446 0.77344,-0.1211 0.19828,0.304 0.51298,-0.1009 2.1582,-2.7773 30.43737,-49.5147 31.60289,-51.4422 31.58399,-52.1875 -0.011,-0.4085 0.0526,-0.7422 0.14062,-0.7422 0.0888,0 0.12714,-0.125 0.0859,-0.2754 -0.041,-0.1505 -0.3222,-1.2079 -0.62305,-2.3516 -0.30085,-1.1437 -0.66421,-2.2168 -0.80859,-2.3828 -0.14438,-0.166 -0.21685,-0.4364 -0.16016,-0.6015 0.0567,-0.1652 0.0151,-0.2989 -0.0937,-0.2989 -0.10885,0 -0.17684,-0.1249 -0.15039,-0.2753 0.0626,-0.3559 -0.3876,-1.8853 -0.74023,-2.5157 -0.15118,-0.2709 -0.20815,-0.4944 -0.125,-0.4961 0.0828,0 0.0518,-0.076 -0.0703,-0.164 -0.12204,-0.089 -0.68653,-1.1457 -1.25391,-2.3496 -0.56734,-1.2039 -1.70709,-3.4701 -2.53125,-5.0352 -0.82416,-1.5651 -1.73147,-3.3071 -2.01758,-3.8711 -0.28596,-0.5639 -0.77204,-1.2266 -1.08008,-1.4726 -0.30814,-0.246 -0.92686,-1.139 -1.375,-1.9844 -0.4481,-0.8455 -0.94231,-1.5371 -1.09765,-1.5371 -0.15523,0 -0.59415,-0.5283 -0.97656,-1.1739 -0.38242,-0.6455 -0.90221,-1.2793 -1.1543,-1.4082 -0.25217,-0.1287 -0.65535,-0.6263 -0.89649,-1.1074 -0.24117,-0.481 -0.62403,-0.9283 -0.85156,-0.9922 -0.22734,-0.064 -0.57287,-0.415 -0.76562,-0.7812 -0.19295,-0.366 -0.47338,-0.666 -0.62305,-0.666 -0.14956,0 -0.5061,-0.3443 -0.79297,-0.7657 -0.28675,-0.4214 -0.60706,-0.7656 -0.71289,-0.7656 -0.10571,0 -0.64407,-0.4562 -1.19531,-1.0117 -0.55121,-0.5555 -1.17797,-1.0986 -1.39453,-1.207 -0.61361,-0.3075 -1.6615,-1.1131 -3.02149,-2.3243 -0.30417,-0.271 -0.63623,-0.4921 -0.73828,-0.4921 -0.10212,0 -0.34479,-0.1968 -0.53906,-0.4375 -0.19438,-0.2409 -0.46222,-0.4375 -0.59375,-0.4375 -0.13138,0 -0.35518,-0.1585 -0.49805,-0.3516 -0.14302,-0.1931 -0.43899,-0.444 -0.6582,-0.5566 -1.34479,-0.691 -3.89488,-2.4226 -4.0918,-2.7793 -0.0616,-0.1119 -0.42725,-0.2703 -0.8125,-0.3516 -0.38521,-0.081 -0.97946,-0.3233 -1.32226,-0.5391 -0.34288,-0.2158 -1.19433,-0.6154 -1.89063,-0.8886 -0.6963,-0.2733 -1.39758,-0.6179 -1.55859,-0.7657 -0.0276,-0.025 -0.0718,-0.052 -0.10547,-0.078 0.34168,-0.1713 0.67922,-0.3447 1.02148,-0.5156 0,0.1842 0.15396,0.3959 0.3418,0.4707 0.18796,0.075 0.47376,0.2541 0.63477,0.4004 0.48601,0.4407 1.24062,0.5347 1.75781,0.2187 l 0.48828,-0.2988 -0.97656,-0.4746 c -2.73234,-1.3273 -6.26225,-2.7156 -8.4961,-3.3438 -1.06885,-0.3005 -1.08078,-0.2981 -2.46484,0.4629 -0.97807,0.5376 -1.50005,0.7111 -1.75781,0.586 -0.20168,-0.098 -0.47073,-0.1594 -0.59961,-0.1367 -0.29242,0.052 -0.71083,-0.7778 -0.47461,-0.9415 0.17764,-0.1228 0.42663,-1.2207 0.27734,-1.2207 -0.27201,0 -0.83984,0.4979 -0.83984,0.7364 0,0.1553 -0.21798,0.5141 -0.48633,0.7968 -0.26865,0.2828 -0.48828,0.6302 -0.48828,0.7715 0,0.1414 -0.34735,0.4322 -0.77149,0.6465 -0.92972,0.4698 -1.17413,1.2623 -0.70312,2.2832 0.29027,0.6292 0.28446,0.6961 -0.0859,1.1113 -0.61342,0.6876 -1.11417,0.557 -1.55078,-0.4023 -0.37659,-0.8273 -0.3978,-0.839 -1.23047,-0.6973 -0.46647,0.079 -0.9718,0.2285 -1.12109,0.3321 -2.70758,1.4788 -12.28368,-2.0422 -2.98438,-3.9434 0.13418,0.057 0.24414,0.01 0.24414,-0.1074 0,-0.1154 0.85703,-0.6917 1.9043,-1.2813 l 1.9043,-1.0722 -1.75782,-0.1641 c -0.48334,-0.045 -1.40661,-0.072 -2.5039,-0.078 z m 23.36328,8.0156 c 0.10772,0 0.19531,0.098 0.19531,0.2188 0,0.1205 -0.088,0.2187 -0.19531,0.2187 -0.10772,0 -0.19531,-0.098 -0.19531,-0.2187 0,-0.1206 0.088,-0.2188 0.19531,-0.2188 z m -4.33203,6.1973 c 0.10005,-0.021 0.21683,0.025 0.39258,0.1308 0.51065,0.3064 0.59013,1.4346 0.11523,1.6387 h -0.002 c -0.43601,0.1875 -0.55619,0.1674 -0.82227,-0.1309 -0.30576,-0.344 -0.297,-0.8709 0.0254,-1.3652 0.10757,-0.1648 0.19097,-0.2524 0.29102,-0.2734 z m 6.95508,3.4336 c 0.40255,0 0.92066,0.6503 0.84961,1.0644 -0.10455,0.6085 -0.71816,0.5567 -0.9336,-0.078 -0.26419,-0.7792 -0.24597,-0.9863 0.084,-0.9863 z m -7.96289,0.2187 c 0.41083,0 0.44389,0.056 0.26172,0.4375 v 0 c -0.20263,0.424 -0.77752,0.5862 -1.03907,0.2929 -0.22367,-0.2507 0.28714,-0.7324 0.77735,-0.7324 z m 18.9375,0.9297 c 0.25717,-0.01 0.48483,0.1993 0.42578,0.5469 v 0 c -0.0699,0.4105 -0.82917,0.6495 -1.01172,0.3184 -0.0605,-0.1096 0.006,-0.378 0.14844,-0.5957 0.11868,-0.182 0.28319,-0.2658 0.4375,-0.2715 z m -23.00977,1.9727 c 0.12135,0.02 0.20939,0.1152 0.33203,0.2968 0.34432,0.5101 0.36505,1.0077 0.0566,1.3536 -0.61651,0.691 -2.27932,-0.1815 -1.73828,-0.9122 0.12578,-0.1698 0.49364,-0.4319 0.81641,-0.582 0.25806,-0.1198 0.41185,-0.1759 0.5332,-0.1562 z m 12.35938,0.6601 c 0.16138,-0.017 0.31951,-0.013 0.45507,0.025 0.6203,0.1745 0.70036,1.0944 0.125,1.4395 -0.20776,0.1247 -0.47141,0.2265 -0.58593,0.2265 -0.2654,0 -0.98829,-0.8048 -0.98829,-1.0996 0,-0.2732 0.51,-0.5394 0.99415,-0.5918 z m -21.01954,2.6153 c 0.24296,0.045 0.43054,0.1971 0.57227,0.457 0.17798,0.3264 0.11928,0.4918 -0.33203,0.9316 -0.8109,0.7903 -1.36748,0.6631 -1.59766,-0.3652 -0.10817,-0.4832 -0.0409,-0.6085 0.45703,-0.8399 0.35946,-0.1669 0.65744,-0.2286 0.90039,-0.1835 z m 27.30665,0.031 c 0.0428,-0.023 0.11462,0.025 0.23632,0.1387 0.16101,0.1499 0.29297,0.4083 0.29297,0.5742 0,0.319 -0.237,0.4008 -0.45508,0.1562 -0.0718,-0.08 -0.13086,-0.3387 -0.13086,-0.5742 0,-0.1778 0.0138,-0.2721 0.0566,-0.2949 z m -21.98438,2.1074 c 0.61137,0.096 1.06261,1.0656 0.62891,1.9317 -0.16128,0.3219 -0.43514,0.6145 -0.60938,0.6523 -0.71928,0.1553 -1.26372,-1.7902 -0.6582,-2.3535 0.21245,-0.1976 0.43488,-0.2626 0.63867,-0.2305 z m 8.23828,0.6582 c 0.16317,0 0.60448,1.1427 0.60547,1.5664 -0.003,0.2191 -0.46421,0.2475 -0.65039,0.039 -0.19616,-0.2198 -0.15766,-1.6055 0.0449,-1.6055 z m 22.86914,0.4375 c 0.10772,0 0.19531,0.1002 0.19531,0.2207 0,0.1206 -0.088,0.2188 -0.19531,0.2188 -0.10771,0 -0.19531,-0.098 -0.19531,-0.2188 0,-0.1205 0.088,-0.2207 0.19531,-0.2207 z m -52.8789,0.4746 c 0.27105,0.027 0.44591,0.1572 0.62109,0.4375 0.39061,0.6267 0.3918,0.9364 0.004,1.3711 -0.67888,0.7609 -1.72888,0.036 -1.61133,-1.1133 0.0529,-0.5186 0.16563,-0.6335 0.67969,-0.6894 0.11539,-0.013 0.21628,-0.015 0.30664,-0.01 z m 47.31836,1.168 c 0.16196,-0.012 0.3713,0 0.6289,0.041 0.97002,0.1469 1.13734,0.7157 0.33203,1.127 -0.69925,0.3573 -0.81666,0.3283 -1.18554,-0.3028 -0.32211,-0.5511 -0.26129,-0.8279 0.22461,-0.8652 z m -7.48243,0.6465 c 0.24252,-0.052 0.37016,0.043 0.58985,0.3476 0.18935,0.2622 0.34375,0.5503 0.34375,0.6387 h 0.002 c 0,0.088 -0.1629,0.3243 -0.36133,0.5254 -0.33796,0.3428 -0.39282,0.3368 -0.8789,-0.092 -0.66497,-0.5853 -0.65895,-1.0327 0.0156,-1.3203 0.11377,-0.048 0.20823,-0.082 0.28906,-0.1 z m -35.01562,0.6426 c 0.26624,-0.02 0.48841,0.248 0.32031,0.5527 -0.15628,0.2835 -0.88867,0.3205 -0.88867,0.045 0,-0.1057 0.13524,-0.3165 0.30078,-0.4707 0.0859,-0.08 0.17883,-0.1202 0.26758,-0.1269 z m 24.43164,0.4199 c 0.43632,-0.027 0.80376,0.3836 0.73828,0.8984 -0.0334,0.2623 -0.22553,0.4818 -0.45117,0.5196 -0.80466,0.1292 -1.233,-1.1098 -0.47656,-1.3789 0.0641,-0.023 0.12712,-0.035 0.18945,-0.039 z m 3.14258,1.1133 c 0.0963,0 0.21094,0.023 0.3457,0.062 0.30576,0.09 0.41657,0.2656 0.375,0.5918 -0.0346,0.2716 -0.22383,0.4895 -0.45703,0.5273 -0.47668,0.076 -0.67578,-0.1103 -0.67578,-0.6348 0,-0.3776 0.12325,-0.5508 0.41211,-0.5468 z m 24.09765,0.043 c 0.23925,0.017 0.50031,0.1291 0.76172,0.3438 0.31193,0.2563 0.74475,0.4769 0.96094,0.4883 0.76282,0.045 0.52686,0.5188 -0.43359,0.8711 -1.25144,0.4588 -1.6433,0.449 -2.04688,-0.051 -0.25172,-0.3118 -0.28507,-0.5355 -0.14258,-0.9551 0.16479,-0.4859 0.50164,-0.725 0.90039,-0.6973 z m -31.79492,0.1524 c 0.27074,0.021 0.66985,0.5907 0.5293,0.8457 -0.0566,0.1028 -0.27184,0.1855 -0.48047,0.1855 -0.42104,0 -0.53497,-0.7401 -0.1543,-1.0039 0.0315,-0.022 0.0668,-0.03 0.10547,-0.027 z m 13.11133,0.375 c 0.65083,0 0.59325,1.1571 -0.0742,1.498 -0.27356,0.1399 -0.52042,0.2539 -0.54687,0.2539 -0.14427,0 -0.51758,-0.5615 -0.51758,-0.7773 0,-0.3977 0.67451,-0.9746 1.13867,-0.9746 z m -23.8125,0.2734 c 0.12891,0.022 0.24839,0.1094 0.41016,0.2735 0.48189,0.4889 0.49851,0.9552 0.0488,1.3378 -0.39753,0.3383 -0.4006,0.3378 -0.97656,0.078 -0.62543,-0.2818 -0.59532,-1.2357 0.0488,-1.5645 0.20137,-0.1028 0.33984,-0.1467 0.46875,-0.125 z m 29.42187,2.4668 c 0.0531,0.016 0.0859,0.055 0.0859,0.1133 0,0.1164 -0.13196,0.2109 -0.29297,0.2109 -0.161,0 -0.29297,-0.039 -0.29297,-0.086 0,-0.047 0.13197,-0.1418 0.29297,-0.2109 0.0805,-0.035 0.15393,-0.043 0.20703,-0.027 z m 15.48438,0.1231 c 0.33026,-0.025 0.65058,0.1 0.87891,0.3828 0.49024,0.607 0.40911,1.3259 -0.17774,1.5762 -0.85217,0.363 -1.41948,0.2515 -1.76758,-0.3438 -0.30992,-0.5305 -0.30467,-0.5788 0.12696,-1.0938 0.2688,-0.3206 0.60918,-0.4962 0.93945,-0.5214 z m -64.81836,0.4199 c 0.11339,0 0.20703,0.098 0.20703,0.2187 0,0.1206 -0.0387,0.2188 -0.0859,0.2188 -0.0472,0 -0.14051,-0.098 -0.20703,-0.2188 -0.0661,-0.1205 -0.0278,-0.2187 0.0859,-0.2187 z m 1.86133,0.2187 c 0.54406,0 0.90042,0.6506 0.73828,1.3457 -0.0484,0.2074 -0.25161,0.5436 -0.45117,0.7461 -0.34349,0.3483 -0.39524,0.3328 -0.95703,-0.2968 -0.32667,-0.3661 -0.59375,-0.8184 -0.59375,-1.0039 0,-0.4199 0.59322,-0.7911 1.26367,-0.7911 z m 48.625,0.01 c 0.15046,0.034 0.31742,0.1608 0.38281,0.3516 0.0676,0.1979 0.0986,0.3859 0.0684,0.4199 -0.10764,0.1206 -0.73633,-0.3678 -0.73633,-0.5723 0,-0.176 0.1347,-0.2334 0.28516,-0.1992 z m 8.64062,0.3887 c 0.12025,0.019 0.27096,0.1291 0.44141,0.3593 0.15027,0.2029 0.43051,0.2752 0.76953,0.1993 0.76823,-0.1722 2.10352,0.2902 2.45313,0.8496 0.40172,0.6427 0.38096,1.7651 -0.041,2.1914 -0.44825,0.4528 -1.21875,0.6268 -1.72656,0.3906 -0.44962,-0.2091 -1.44727,-1.4496 -1.44727,-1.7988 0,-0.1223 -0.17595,-0.4732 -0.39062,-0.7793 -0.50222,-0.7157 -0.41933,-1.4688 -0.0586,-1.4121 z m -77.125,1.3828 c 0.15888,0.017 0.23828,0.112 0.23828,0.2832 0,0.2234 -0.17584,0.3437 -0.5039,0.3437 -0.61172,0 -0.54517,-0.514 0.0801,-0.6171 0.0704,-0.012 0.13258,-0.015 0.18554,-0.01 z m 85.83985,0.2344 c 0.0402,0.01 0.0979,0.049 0.16797,0.1269 0.1262,0.1422 0.18428,0.307 0.1289,0.3692 -0.13039,0.146 -0.36133,-0.1122 -0.36133,-0.4043 0,-0.068 0.0243,-0.098 0.0645,-0.092 z m -42.16211,0.051 c 0.0966,0.019 0.19768,0.058 0.30273,0.1211 0.49092,0.2945 0.71119,1.216 0.39258,1.6465 -0.3408,0.4603 -1.11975,0.4045 -1.35938,-0.098 -0.43789,-0.9172 -0.0122,-1.8012 0.66407,-1.67 z m 30.7539,0.8067 c 0.059,-0.01 0.11758,0.012 0.16407,0.064 0.0665,0.074 0.027,0.2403 -0.0879,0.3692 -0.14022,0.1572 -0.24964,0.161 -0.33204,0.012 -0.10403,-0.1887 0.0789,-0.4265 0.25586,-0.4453 z m -28.4375,0.666 c 0.0571,-0.01 0.11914,-0.01 0.18555,0 0.32198,0.051 0.44141,0.2172 0.44141,0.6152 0,0.6387 -0.50524,0.8379 -0.8711,0.3437 -0.3102,-0.4189 -0.15531,-0.9032 0.24414,-0.9609 z m -38.58398,0.248 c 0.27501,0.042 0.87984,0.771 0.75781,0.9922 h -0.002 c -0.2434,0.4414 -0.69068,0.2766 -0.82031,-0.3027 -0.068,-0.3065 -0.0807,-0.6047 -0.0293,-0.6621 0.0228,-0.025 0.0545,-0.033 0.0937,-0.027 z m 6.80859,0.074 c 0.13771,0.01 0.28205,0.043 0.4336,0.1054 0.60321,0.2501 0.73698,0.7837 0.32422,1.295 -0.40491,0.5013 -1.20451,0.5478 -1.73047,0.1015 -0.34167,-0.2901 -0.34553,-0.3504 -0.0606,-0.8379 0.27142,-0.4641 0.62009,-0.6877 1.0332,-0.664 z m 25.53907,0.3359 c 0.70715,-0.091 1.64363,0.3375 1.89648,0.8672 0.23233,0.4866 -0.0351,1.1639 -0.5918,1.498 -0.54958,0.3298 -0.82486,0.2759 -1.43945,-0.2754 -0.45044,-0.4039 -0.54082,-0.6372 -0.48828,-1.2578 0.0554,-0.6545 0.14354,-0.7708 0.62305,-0.832 z m 4.84961,0.1797 c 0.46745,0 0.62509,0.1309 0.80273,0.6582 0.18384,0.5459 0.32875,0.6562 0.86133,0.6562 0.87571,0 1.42187,0.6547 1.42187,1.7032 0,0.4547 -0.13568,1.0449 -0.30273,1.3125 -0.59698,0.9552 -1.55977,0.3211 -1.75781,-1.1582 -0.10908,-0.815 -0.20395,-0.9825 -0.55469,-0.9825 -0.58288,0 -1.28906,-0.5961 -1.28906,-1.0878 0,-0.792 0.22882,-1.1016 0.81836,-1.1016 z m -40.96094,0.7207 c 0.68287,-0.013 1.38587,0.3686 1.7207,1.0039 0.40214,0.7625 0.42452,1.1319 0.0957,1.6211 -0.55135,0.8201 -2.20521,1.1266 -2.85351,0.5293 -0.81789,-0.7536 -0.59133,-2.5544 0.37695,-3.0039 0.20875,-0.097 0.43253,-0.1461 0.66016,-0.1504 z m 3.03711,2.125 c 0.48907,0 0.74739,0.6262 0.36914,0.8945 -0.14967,0.1066 -0.31547,0.1934 -0.36914,0.1934 -0.0541,0 -0.22105,-0.087 -0.3711,-0.1934 -0.37806,-0.2684 -0.11828,-0.8945 0.3711,-0.8945 z m 19.21093,0.5098 c 0.14789,-0.01 0.28847,0.03 0.39649,0.1308 0.33033,0.3071 0.43669,1.5488 0.13281,1.5488 -0.0988,0 -0.29904,0.053 -0.44531,0.1153 -0.35048,0.1507 -0.89442,-0.3349 -0.97266,-0.8672 -0.0677,-0.4605 0.44503,-0.9038 0.88867,-0.9277 z m -14.80078,1.6796 c 0.30036,0 0.7145,0.7492 0.5293,0.9571 -0.19846,0.2222 -0.99952,0.1592 -1.13672,-0.09 -0.15609,-0.2831 0.25253,-0.8672 0.60742,-0.8672 z m 30.56055,0.459 c 0.14644,-0.01 0.31367,0.025 0.49609,0.098 1.20889,0.4792 1.83044,3.6364 0.88477,4.4961 -0.57967,0.5271 -0.61122,0.5247 -1.41406,-0.086 -0.55952,-0.4254 -0.65902,-0.6222 -0.625,-1.2578 0.0525,-1.0195 0.0542,-1.5139 0.004,-2.2578 -0.0412,-0.6102 0.21497,-0.9718 0.6543,-0.9922 z m -20.00586,0.2578 c 0.28448,-0.029 0.6582,0.4105 0.6582,0.8418 0,0.4018 -0.56526,0.5797 -0.8457,0.2657 -0.20107,-0.2254 -0.15526,-0.9069 0.0723,-1.0645 0.0357,-0.025 0.0746,-0.039 0.11523,-0.043 z m 57.93555,1.7539 c 0.0435,-0.01 0.11746,0.046 0.23633,0.1563 0.161,0.1497 0.29296,0.359 0.29296,0.4648 0,0.2268 -0.27145,0.2528 -0.45703,0.045 -0.0714,-0.08 -0.1289,-0.2876 -0.1289,-0.4629 0,-0.1293 0.0131,-0.1963 0.0566,-0.2032 z m -92.93555,0.1817 c 0.07,0 0.15694,0 0.26172,0.016 0.38623,0.05 0.53711,0.191 0.53711,0.5059 0,0.2738 -0.14899,0.4619 -0.39844,0.5019 -0.48348,0.078 -0.67578,-0.1106 -0.67578,-0.6621 0,-0.2429 0.0654,-0.3473 0.27539,-0.3613 z m 50.07227,0.045 c 0.13554,0.013 0.27921,0.06 0.41992,0.1445 0.4741,0.2844 0.53367,1.2115 0.0898,1.4024 -0.72782,0.313 -1.2539,-0.056 -1.2539,-0.8809 0,-0.4427 0.33751,-0.7048 0.74414,-0.666 z m -9.8125,0.586 c 0.0476,0 0.0859,0.098 0.0859,0.2187 0,0.1206 -0.0933,0.2187 -0.20703,0.2187 -0.11263,0 -0.15245,-0.098 -0.0859,-0.2187 0.0665,-0.1206 0.15979,-0.2187 0.20704,-0.2187 z m -13.29688,0.3164 c 0.216,0.036 0.49108,0.4448 0.49219,0.8574 7.2e-4,0.2561 0.17513,0.7617 0.38867,1.123 0.49455,0.8331 0.50009,1.5629 0.0156,1.8535 h -0.002 c -0.52547,0.3153 -0.66088,0.2904 -1.14843,-0.2188 -0.48038,-0.5016 -0.5373,-0.8743 -0.19336,-1.2597 0.1285,-0.144 0.21395,-0.6592 0.1875,-1.1446 -0.0257,-0.4853 0.009,-0.9826 0.0762,-1.1054 0.0468,-0.085 0.11159,-0.1154 0.18359,-0.1035 z m 74.5586,0.582 c 0.1267,-0.01 0.24072,0.02 0.32812,0.08 0.35924,0.2487 0.24084,1.3942 -0.16992,1.6406 -0.4704,0.2822 -0.41379,0.2933 -0.96485,-0.1817 -0.39382,-0.3393 -0.42914,-0.4696 -0.23828,-0.8691 0.17706,-0.3709 0.6648,-0.6535 1.04493,-0.6699 z m -107.13672,0.2598 c 0.10951,0.012 0.22411,0.046 0.34375,0.1074 0.50116,0.2558 0.66954,0.9619 0.35547,1.4961 -0.28751,0.4892 -0.94583,0.5426 -1.29883,0.1054 -0.62971,-0.7799 -0.16699,-1.7948 0.59961,-1.7089 z m 26.91406,0.6035 c 0.65607,-0.019 1.27539,0.3025 1.27539,0.8593 0,0.2298 -0.19668,0.5723 -0.43555,0.7598 -0.62226,0.4886 -1.22096,0.4216 -1.84961,-0.207 l -0.54687,-0.5488 0.46094,-0.4376 c 0.29537,-0.28 0.70206,-0.4142 1.0957,-0.4257 z m 66.69726,0.1 c 0.61754,0 0.73077,0.1007 1.17188,1.0449 0.42179,0.9027 0.44854,1.0725 0.19531,1.2539 -0.84707,0.6078 -2.2358,-0.4891 -2.11523,-1.6719 0.0568,-0.557 0.14083,-0.6269 0.74804,-0.6269 z m 3.13672,0.332 c 0.20894,0.013 0.43336,0.1173 0.4961,0.3008 0.0758,0.2215 0.4321,0.3 1.28125,0.2773 1.06299,-0.027 1.22302,0.028 1.64648,0.5801 0.528,0.6877 0.58858,1.1955 0.21289,1.7715 -0.32322,0.4955 -1.86286,0.6958 -2.29297,0.2988 -0.40448,-0.3734 -1.74609,-2.6669 -1.74609,-2.9844 0,-0.1795 0.1934,-0.2571 0.40234,-0.2441 z m -48.86718,0.2754 c 0.22309,0.01 0.45008,0.094 0.62695,0.2734 0.45997,0.4667 0.48337,0.9976 0.084,1.8633 -0.16365,0.3553 -0.31912,0.642 -0.34179,0.6387 -0.59713,-0.091 -1.39809,-1.5373 -1.21289,-2.1914 0.10875,-0.3841 0.47192,-0.5959 0.84375,-0.584 z m -16.5879,1.0215 c 0.0407,0 0.0891,0.015 0.13868,0.07 h 0.002 c 0.0643,0.073 0.0782,0.2582 0.0332,0.4102 -0.0661,0.2225 -0.11154,0.221 -0.23437,0 -0.12218,-0.2214 -0.0617,-0.4643 0.0605,-0.4785 z m -33.48437,2.6504 c 0.17766,-0.024 0.42756,0.1228 0.71875,0.4492 0.33109,0.3702 0.3925,0.6392 0.30859,1.3398 -0.0578,0.4822 -0.17838,0.9527 -0.26757,1.045 h -0.002 c -0.3778,0.3915 -1.009,0.4397 -1.3125,0.1 -0.37493,-0.4223 -0.37707,-0.4946 -0.0195,-1.1953 0.15345,-0.301 0.28333,-0.8193 0.28711,-1.1504 0.004,-0.3671 0.10945,-0.5634 0.28711,-0.5879 z m 51.61133,0.01 c 0.4013,-0.033 0.81174,0.054 1.09765,0.2969 0.46337,0.3934 0.28625,1.0628 -0.37109,1.3985 -0.27148,0.1387 -0.64608,0.2519 -0.83203,0.2519 -0.4461,0 -1.20703,-0.6084 -1.20703,-0.9648 0,-0.5406 0.64367,-0.9269 1.3125,-0.9825 z m -21.3457,0.072 c 1.34604,0.01 2.64443,0.078 2.82812,0.2109 0.15031,0.1085 0.56301,0.2277 0.91602,0.2618 0.35285,0.035 0.99889,0.2697 1.43554,0.5195 0.4368,0.2494 0.79297,0.4099 0.79297,0.3555 0,-0.1148 2.01834,0.7906 2.73438,1.2265 0.95909,0.584 2.1244,1.4807 2.28125,1.7559 0.0876,0.154 0.35809,0.4051 0.59961,0.5566 0.37175,0.2332 0.43945,0.2229 0.43945,-0.062 0,-0.4596 0.52558,-0.6506 0.88086,-0.3203 0.49156,0.4574 0.36391,1.0918 -0.2207,1.0918 -0.43314,0 -0.47514,0.05 -0.26954,0.3281 0.13372,0.1807 0.38802,0.3282 0.56641,0.3282 0.17851,0 0.48265,0.2997 0.67578,0.666 0.50355,0.9554 1.84673,2.3951 1.95899,2.0996 0.0589,-0.1554 0.20637,-0.092 0.39648,0.1719 0.19767,0.275 0.23694,0.5074 0.11523,0.6718 -0.12332,0.1667 -0.0332,0.5024 0.26954,1.002 0.94499,1.5601 2.26562,4.6266 2.26562,5.2598 0,0.3619 0.14009,0.9608 0.31055,1.33 0.17045,0.3693 0.26536,0.8634 0.21094,1.0977 -0.0548,0.2342 0.0291,0.7729 0.1875,1.1973 0.2022,0.5429 0.22685,0.8517 0.084,1.0449 -0.11187,0.1511 -0.14086,0.3442 -0.0664,0.4277 0.0745,0.084 0.15922,0.9112 0.18946,1.8399 0.0302,0.9286 0.0958,2.5255 0.14648,3.5488 0.0491,1.0233 0.0878,2.8941 0.084,4.1582 -0.0102,2.7743 -0.0165,2.5259 0.13281,4.8164 0.0669,1.0233 0.15449,3.2895 0.19531,5.0351 0.0408,1.7457 0.12722,3.6165 0.19336,4.1583 0.0661,0.5417 0.1475,3.3143 0.17773,6.1601 0.0317,2.8457 0.13151,5.3066 0.22071,5.4688 0.0892,0.1621 0.19267,1.5264 0.23047,3.0332 0.19842,8.0347 0.25461,9.8876 0.3457,11.3867 0.13984,2.3011 0.25317,4.9113 0.34765,8.0742 0.08,2.679 0.0735,2.7202 -0.42968,3.3203 -0.39863,0.4754 -0.75298,0.6378 -1.63282,0.75 l -1.125,0.1445 -0.73046,-0.916 c -0.40196,-0.5037 -0.91865,-0.997 -1.14844,-1.0957 -0.40207,-0.173 -0.84615,-0.8931 -1.91602,-3.1054 -0.27549,-0.5697 -0.7256,-1.2009 -1,-1.4024 -0.27435,-0.2015 -0.72365,-0.8691 -0.99804,-1.4824 -0.27428,-0.6133 -0.83325,-1.6684 -1.24219,-2.3457 -0.40895,-0.6773 -1.0252,-1.8595 -1.36914,-2.627 -0.34413,-0.7674 -0.78059,-1.6429 -0.97071,-1.9453 -0.19022,-0.3022 -1.28969,-2.4189 -2.44335,-4.7051 -1.15367,-2.2861 -2.33915,-4.4531 -2.63282,-4.8144 -0.73697,-0.9063 -1.95117,-2.9451 -1.95117,-3.2774 0,-0.1505 -0.27249,-0.6569 -0.60547,-1.125 -0.33305,-0.468 -0.82628,-1.3433 -1.09765,-1.9453 -0.27145,-0.6019 -1.17303,-2.3744 -2.00196,-3.9394 -0.82892,-1.5651 -1.98204,-3.8214 -2.5625,-5.0137 -0.60321,-1.239 -1.20719,-2.2133 -1.41015,-2.2734 -0.21438,-0.064 -0.70533,-0.911 -1.23828,-2.1387 -0.48556,-1.1186 -1.05064,-2.2039 -1.25586,-2.4121 -0.45684,-0.4635 -0.48008,-0.2609 -0.0547,0.4668 0.28649,0.49 0.28554,0.5303 0.006,0.4101 -0.34231,-0.1471 -0.60601,-0.8529 -0.43555,-1.1621 0.0598,-0.1084 -0.17729,-0.7301 -0.52539,-1.3808 -0.34825,-0.6508 -1.20419,-2.3323 -1.90234,-3.7364 -1.13515,-2.2826 -1.32642,-2.5529 -1.80664,-2.5605 -0.29541,0 -0.71306,-0.2065 -0.92774,-0.4473 -0.46186,-0.5178 -0.52304,-1.7077 -0.0977,-1.8906 0.25322,-0.1091 0.24755,-0.2088 -0.0469,-0.7676 -0.18641,-0.3537 -0.52928,-0.7842 -0.76172,-0.955 -0.23259,-0.1709 -1.03445,-1.4715 -1.78125,-2.8907 -2.29844,-4.3679 -2.95444,-5.8262 -2.93554,-6.5215 0.01,-0.3617 -0.0443,-0.8741 -0.11915,-1.1386 -0.39787,-1.4052 1.02115,-3.852 2.83204,-4.8848 0.60064,-0.3426 1.23844,-0.8744 1.41796,-1.1816 0.17965,-0.3073 0.65541,-0.7464 1.05665,-0.9766 0.40119,-0.2301 1.03604,-0.7541 1.4121,-1.1641 0.37595,-0.4099 1.14341,-1.0247 1.70508,-1.3671 0.56172,-0.3425 1.07159,-0.7995 1.13282,-1.0157 0.15216,-0.5373 4.00106,-2.61 5.24804,-2.8261 0.54807,-0.095 1.25964,-0.2656 1.58203,-0.379 0.36894,-0.1294 1.76138,-0.1883 3.10743,-0.1816 z m -11.62696,1.707 c 0.0879,0.01 0.17846,0.028 0.27149,0.068 0.32965,0.1418 0.61488,1.0859 0.42968,1.4219 -0.1915,0.3474 -1.22993,0.2376 -1.42382,-0.1504 -0.33918,-0.6793 0.10743,-1.3877 0.72265,-1.3399 z m 72.64063,0.4024 c 0.20673,-10e-5 0.60937,0.4782 0.50586,0.666 -0.059,0.107 -0.17996,0.1934 -0.26953,0.1934 -0.19578,0 -0.45046,-0.6736 -0.3125,-0.8282 0.0194,-0.022 0.0466,-0.031 0.0762,-0.031 z m -77.66211,1.0781 c 0.92746,0 1.52839,1.7218 0.76172,2.1816 -0.78467,0.4707 -1.57422,0.129 -1.57422,-0.6816 0,-0.6811 0.44324,-1.5 0.8125,-1.5 z m 40.07812,0.6875 c 0.10976,0.034 0.19754,0.1619 0.31055,0.3984 0.16403,0.3442 0.1296,0.473 -0.17578,0.6563 -0.51606,0.3098 -0.55585,0.2973 -0.70703,-0.2363 -0.0824,-0.292 -0.0315,-0.536 0.13476,-0.6543 0.19678,-0.1399 0.32774,-0.1983 0.4375,-0.1641 z m -2.01758,6.5371 c 0.10092,0 0.1836,0.098 0.1836,0.2188 0,0.1205 -0.1353,0.2187 -0.30274,0.2187 -0.16856,0 -0.25011,-0.098 -0.18359,-0.2187 0.0661,-0.1206 0.20182,-0.2188 0.30273,-0.2188 z m 38.21485,0.2285 c 0.2178,-0.038 0.49857,0.1397 0.83008,0.5352 0.39269,0.4685 0.42637,0.6215 0.23437,1.0937 -0.14808,0.3642 -0.38073,0.5489 -0.6914,0.5489 -0.67968,0 -0.97654,-0.5095 -0.82422,-1.42 0.0781,-0.4669 0.23337,-0.7198 0.45117,-0.7578 z m 3.32617,0.2442 c 0.0634,-0.027 0.11839,-0.026 0.14844,0.01 0.0571,0.068 -0.0509,0.1897 -0.24219,0.2715 -0.27817,0.119 -0.29904,0.093 -0.10742,-0.1231 0.0661,-0.075 0.13772,-0.1292 0.20117,-0.1562 z m -42.87305,1.0625 c 0.44296,0 0.70083,1.0613 0.32227,1.3301 -0.45283,0.3214 -0.79667,0.1357 -1.02344,-0.5508 -0.1505,-0.4556 0.13651,-0.7755 0.70117,-0.7793 z m 34.96875,13.8691 c 0.0354,-0.018 0.0831,-0.01 0.13672,0.027 0.10772,0.074 0.19531,0.1795 0.19531,0.2324 0,0.053 -0.088,0.096 -0.19531,0.096 -0.10771,0 -0.19531,-0.1051 -0.19531,-0.2324 0,-0.063 0.0232,-0.1055 0.0586,-0.1231 z m -65.80859,7.4375 c 0.0574,-0.036 0.167,0.039 0.37695,0.1953 0.24159,0.1796 0.47002,0.498 0.50782,0.7071 0.037,0.2092 -0.007,0.4611 -0.0977,0.5605 -0.28097,0.3085 -0.84961,-0.354 -0.84961,-0.9902 0,-0.289 0.005,-0.4364 0.0625,-0.4727 z m 31.41406,9.1465 c 0.06,0.016 0.12858,0.065 0.20313,0.1484 0.17605,0.1974 0.17776,0.3191 0.004,0.5137 -0.17348,0.1947 -0.25953,0.1662 -0.35742,-0.1191 -0.12407,-0.3625 -0.0296,-0.592 0.15039,-0.543 z m 1.39063,7.9316 c 0.0354,-0.017 0.083,-0.01 0.13672,0.027 0.10771,0.074 0.19531,0.1795 0.19531,0.2324 0,0.053 -0.088,0.096 -0.19531,0.096 -0.10772,0 -0.19532,-0.105 -0.19532,-0.2324 0,-0.063 0.0232,-0.1055 0.0586,-0.1231 z m -0.87891,3.6993 c 0.0339,-0.013 0.0689,-0.014 0.10547,0 0.1251,0.046 0.35852,0.3495 0.51953,0.6738 0.26041,0.5244 0.26041,0.6141 0,0.8008 -0.45698,0.3276 -0.74398,0.2559 -0.87891,-0.2207 -0.14081,-0.4972 0.0167,-1.167 0.25391,-1.2539 z m 21.07813,9.6855 c 0.0737,-0.029 0.11889,0.038 0.16992,0.1875 0.0654,0.1947 0.0698,0.5029 0.008,0.6836 h 0.002 c -0.10511,0.3073 -0.90625,0.4811 -0.90625,0.1973 0,-0.071 0.17551,-0.3778 0.38867,-0.6817 0.16349,-0.233 0.26424,-0.3579 0.3379,-0.3867 z m -5.5918,1.418 c 0.48718,0 0.6613,0.4891 0.38086,1.0761 -0.25603,0.5364 -0.45924,0.5736 -0.78125,0.1387 -0.32425,-0.4379 -0.0688,-1.2148 0.40039,-1.2148 z m 0.70312,6.3808 c 0.0543,0.017 0.12558,0.1212 0.17774,0.2735 0.0711,0.203 0.083,0.4184 0.0293,0.4785 -0.0537,0.06 -0.15507,-0.057 -0.22461,-0.2598 -0.0711,-0.203 -0.083,-0.4184 -0.0293,-0.4785 0.0134,-0.015 0.0288,-0.019 0.0469,-0.014 z m -20.91992,10.1485 c 0.68165,-0.022 2.289,1.9711 2.18946,2.9355 -0.0632,0.6132 -0.30621,0.7494 -0.78126,0.4395 -0.41812,-0.2727 -1.78298,-2.9695 -1.63671,-3.2344 0.0519,-0.094 0.13113,-0.1376 0.22851,-0.1406 z"
         style="opacity:1;fill:#0d0c06;fill-opacity:0.70854277;stroke:#2c7178;stroke-width:0.2067547;stroke-miterlimit:4;stroke-dasharray:none;stroke-opacity:1" />
      <path
         style="opacity:1;fill:#0d0c06;fill-opacity:0.70854277;stroke:#2c7178;stroke-width:0.05470385;stroke-miterlimit:4;stroke-dasharray:none;stroke-opacity:1"
         d="m 242.78703,-271.00152 c -0.0509,-0.14931 -0.16218,-0.3258 -0.25614,-0.40612 -0.0914,-0.0781 -0.29048,-0.37009 -0.44243,-0.64878 -0.15194,-0.2787 -0.31808,-0.51898 -0.36919,-0.53396 -0.0511,-0.015 -0.23887,-0.29844 -0.41724,-0.6299 -0.19091,-0.35477 -0.35768,-0.60266 -0.40544,-0.60266 -0.0476,0 -0.19351,-0.21548 -0.35296,-0.52123 -0.14977,-0.28719 -0.30642,-0.52124 -0.34888,-0.52124 -0.0795,0 -0.4547,-0.60549 -0.4547,-0.7337 0,-0.0396 -0.0176,-0.0598 -0.0391,-0.0449 -0.0215,0.0149 -0.0932,-0.0945 -0.15932,-0.24305 -0.0661,-0.14859 -0.18245,-0.32181 -0.25854,-0.38493 -0.0761,-0.0631 -0.25609,-0.33072 -0.39998,-0.59466 -0.1439,-0.26393 -0.3291,-0.54059 -0.41156,-0.6148 -0.0825,-0.0742 -0.23726,-0.29128 -0.34399,-0.4824 -0.10674,-0.19112 -0.30106,-0.48102 -0.43184,-0.64422 -0.13077,-0.16319 -0.30752,-0.40737 -0.39278,-0.5426 -0.0853,-0.13523 -0.22989,-0.35354 -0.32141,-0.48513 -0.0915,-0.13159 -0.25428,-0.39287 -0.36169,-0.58063 -0.10742,-0.18776 -0.32729,-0.5043 -0.48861,-0.70343 -0.16132,-0.19912 -0.34448,-0.47552 -0.40703,-0.61421 -0.0625,-0.1387 -0.21539,-0.37485 -0.33966,-0.52479 -0.12426,-0.14994 -0.22593,-0.29832 -0.22593,-0.32974 0,-0.0314 -0.0675,-0.10183 -0.15004,-0.15646 -0.0842,-0.0558 -0.25626,-0.29951 -0.39216,-0.55557 -0.13317,-0.25093 -0.31059,-0.51297 -0.39426,-0.58231 -0.0837,-0.0693 -0.29105,-0.37944 -0.46083,-0.68912 -0.16979,-0.30969 -0.35363,-0.57904 -0.40854,-0.59858 -0.0549,-0.0195 -0.20526,-0.23623 -0.33412,-0.48154 -0.27075,-0.51546 -0.332,-0.60708 -0.45808,-0.68519 -0.0506,-0.0313 -0.23661,-0.32917 -0.41336,-0.66182 -0.17675,-0.33265 -0.36949,-0.62852 -0.4283,-0.65749 -0.0588,-0.029 -0.16074,-0.15927 -0.22649,-0.28957 -0.25849,-0.51223 -0.57516,-1.00655 -0.6612,-1.03213 -0.0497,-0.0148 -0.20451,-0.2553 -0.3439,-0.53447 -0.13939,-0.27916 -0.34069,-0.60239 -0.44732,-0.71829 -0.10663,-0.11589 -0.28081,-0.37796 -0.38708,-0.58239 -0.10626,-0.20442 -0.31984,-0.52608 -0.47463,-0.71479 -0.20807,-0.25369 -0.27412,-0.37434 -0.25345,-0.46297 0.0154,-0.0659 0.004,-0.17001 -0.0252,-0.23129 -0.0292,-0.0613 -0.0422,-0.12372 -0.0288,-0.13876 0.0419,-0.047 3.85929,5.76092 3.85929,5.87171 0,0.13946 0.14272,0.36245 0.23198,0.36245 0.0391,0 0.34355,0.41048 0.67652,0.91217 0.33297,0.50169 0.72107,1.08413 0.86245,1.29432 0.18499,0.27503 0.26028,0.44181 0.26857,0.59496 0.0132,0.24466 0.20727,0.51702 0.33575,0.47132 0.10102,-0.0359 0.87998,1.10645 0.87998,1.29054 0,0.068 0.0968,0.21362 0.2264,0.34049 0.22798,0.22324 1.5304,2.1536 1.5304,2.26826 0,0.0339 0.0306,0.0824 0.068,0.10789 0.0768,0.0523 0.47949,0.64572 2.2124,3.2606 0.66495,1.00337 1.53415,2.31436 1.93155,2.91329 1.01208,1.52533 0.99783,1.50113 0.95779,1.62655 -0.028,0.0875 -0.0529,0.0567 -0.12488,-0.15472 z"
         id="path2089" />
      <path
         style="opacity:1;fill:#0d0c06;fill-opacity:0.70854277;stroke:#2c7178;stroke-width:0.05470385;stroke-miterlimit:4;stroke-dasharray:none;stroke-opacity:1"
         d="m 243.46837,-268.01695 c 0.0557,-0.0876 0.10269,-0.17973 0.10454,-0.20475 0.005,-0.0617 0.21468,-0.35801 0.21468,-0.30273 0,0.0241 0.0346,0.0117 0.0769,-0.0277 0.0423,-0.0394 0.0665,-0.0905 0.0537,-0.11371 -0.0382,-0.0693 0.30072,-0.31986 0.40623,-0.3003 0.069,0.0128 0.0889,-0.007 0.0678,-0.0691 -0.0208,-0.0608 0.0349,-0.12131 0.18413,-0.20005 0.18173,-0.0959 0.22471,-0.10085 0.28515,-0.0331 0.0945,0.10595 0.36722,0.0782 0.44434,-0.0452 0.0578,-0.0924 0.0776,-0.0922 0.32978,0.003 0.15121,0.0574 0.31551,0.16906 0.37645,0.2559 0.0595,0.0847 0.1366,0.15408 0.1714,0.15408 0.0989,0 0.70429,0.76266 0.70429,0.88724 0,0.0201 -0.0639,0.008 -0.14209,-0.0266 -0.44494,-0.19768 -1.30011,-0.38422 -1.66638,-0.36348 -0.34646,0.0196 -0.85297,0.12058 -0.9764,0.19461 -0.0598,0.0359 -0.10904,0.0447 -0.10948,0.0197 -3.9e-4,-0.025 -0.0179,-0.0162 -0.0387,0.0195 -0.0352,0.0603 -0.48306,0.31147 -0.55535,0.31147 -0.0177,0 0.0134,-0.0717 0.069,-0.15926 z"
         id="path2091" />
      <path
         style="opacity:1;fill:#0d0c06;fill-opacity:0.70854277;stroke:#2c7178;stroke-width:0.02735193;stroke-miterlimit:4;stroke-dasharray:none;stroke-opacity:1"
         d="m 248.26195,-305.14678 c -0.015,-0.0217 -0.0653,-0.11527 -0.11185,-0.20803 -0.1184,-0.23605 -0.15703,-0.24933 -0.39083,-0.13431 -0.16298,0.0802 -0.20091,0.0891 -0.26473,0.0621 -0.0606,-0.0256 -0.10972,-0.019 -0.26313,0.0356 -0.11797,0.042 -0.20162,0.0576 -0.22328,0.0418 -0.0191,-0.0139 -0.0928,-0.0255 -0.16382,-0.0257 -0.21193,-4.4e-4 -0.46333,-0.0311 -0.48957,-0.0594 -0.0135,-0.0146 -0.0669,-0.0265 -0.11872,-0.0265 -0.061,0 -0.11045,-0.0202 -0.14047,-0.0573 -0.0255,-0.0316 -0.085,-0.0655 -0.13226,-0.0754 -0.0473,-0.01 -0.099,-0.0356 -0.11483,-0.0571 -0.0232,-0.0312 0.0339,-0.0743 0.288,-0.21703 0.29578,-0.16619 0.32301,-0.17601 0.40902,-0.14747 0.16703,0.0554 0.44647,0.0675 0.55764,0.024 0.0748,-0.0292 0.1236,-0.0323 0.17868,-0.0114 0.0578,0.022 0.10838,0.0164 0.21323,-0.0236 0.0756,-0.0288 0.141,-0.047 0.14536,-0.0404 0.004,0.007 0.0465,0.0808 0.0936,0.16491 0.0887,0.1584 0.14402,0.20903 0.2285,0.20903 0.12945,0 0.19971,-0.27006 0.1211,-0.46547 l -0.0465,-0.11569 0.13351,-0.13829 c 0.0734,-0.0761 0.1335,-0.15986 0.1335,-0.1862 0,-0.0264 0.0262,-0.063 0.0581,-0.0815 0.032,-0.0185 0.0831,-0.0591 0.11365,-0.0902 0.054,-0.055 0.0632,-0.0553 0.33475,-0.0101 0.15359,0.0256 0.28724,0.061 0.29702,0.0787 0.01,0.0179 -0.0269,0.0798 -0.0829,0.13954 -0.0554,0.059 -0.10064,0.13414 -0.10064,0.16695 0,0.0398 -0.0376,0.0844 -0.11353,0.13422 -0.11984,0.0787 -0.24816,0.22895 -0.24816,0.29052 0,0.0201 -0.061,0.0733 -0.13564,0.11817 -0.31528,0.18957 -0.33339,0.23694 -0.1988,0.51964 0.0739,0.15515 0.0958,0.27509 0.034,0.18579 z"
         id="path2093" />
      <path
         style="opacity:1;fill:#0d0c06;fill-opacity:0.70854277;stroke:#2c7178;stroke-width:0.02735193;stroke-miterlimit:4;stroke-dasharray:none;stroke-opacity:1"
         d="m 247.21893,-306.0377 c -0.0859,-0.0177 -0.0872,-0.0197 -0.0259,-0.0392 0.0356,-0.0113 0.10895,-0.0208 0.16317,-0.021 0.0542,-2.3e-4 0.12151,-0.0141 0.14953,-0.031 0.028,-0.0168 0.0767,-0.021 0.1081,-0.009 0.0485,0.0181 0.0355,0.0291 -0.0849,0.0722 -0.15292,0.0548 -0.17237,0.0566 -0.31002,0.0282 z"
         id="path2095" />
      <path
         style="opacity:1;fill:#0d0c06;fill-opacity:0.70854277;stroke:#2c7178;stroke-width:0.02735193;stroke-miterlimit:4;stroke-dasharray:none;stroke-opacity:1"
         d="m 248.26671,-304.98596 c -0.0901,-0.10105 -0.17362,-0.24381 -0.16306,-0.27889 0.007,-0.0217 0.028,-8.8e-4 0.0518,0.0497 0.0223,0.0478 0.0771,0.12573 0.12164,0.17324 0.0676,0.072 0.0851,0.0793 0.10525,0.0434 0.0405,-0.0717 0.028,-0.24139 -0.0267,-0.36147 -0.0755,-0.16602 -0.0671,-0.26253 0.0316,-0.3636 0.0458,-0.0469 0.0952,-0.0852 0.1098,-0.0851 0.0146,7e-5 -0.0119,0.0405 -0.0589,0.0899 -0.0952,0.1 -0.0956,0.15537 -0.003,0.38443 0.0592,0.14619 0.062,0.24545 0.009,0.32993 -0.0472,0.0755 -0.12025,0.0831 -0.17793,0.0184 z"
         id="path2097" />
      <path
         style="opacity:1;fill:#0d0c06;fill-opacity:0.70854277;stroke:#2c7178;stroke-width:0.02735193;stroke-miterlimit:4;stroke-dasharray:none;stroke-opacity:1"
         d="m 247.86127,-305.78027 c -0.0521,-0.0342 -0.21515,-0.31424 -0.19561,-0.33614 0.008,-0.009 0.0347,0.0211 0.0598,0.0663 0.13056,0.23525 0.24273,0.28594 0.24273,0.10966 0,-0.0565 -0.0182,-0.14218 -0.0404,-0.19032 -0.0388,-0.0841 -0.0375,-0.0917 0.0315,-0.19403 0.0942,-0.13949 0.31522,-0.38158 0.34843,-0.38158 0.0357,0 -0.068,0.14846 -0.21989,0.315 l -0.12578,0.13791 0.0418,0.0906 c 0.049,0.10622 0.0553,0.32739 0.0108,0.3773 -0.0369,0.0414 -0.0952,0.0434 -0.15339,0.005 z"
         id="path2099" />
      <path
         style="opacity:1;fill:#0d0c06;fill-opacity:0.70854277;stroke:#2c7178;stroke-width:0.02735193;stroke-miterlimit:4;stroke-dasharray:none;stroke-opacity:1"
         d="m 247.67887,-306.22244 c -0.0523,-0.0537 -0.1019,-0.13564 -0.11029,-0.18218 -0.008,-0.0465 -0.0264,-0.12286 -0.0399,-0.16958 -0.0276,-0.0953 -0.009,-0.14285 0.0279,-0.0697 0.0131,0.0262 0.0878,0.0881 0.16599,0.13755 0.14444,0.0914 0.16097,0.11417 0.11842,0.16332 -0.0131,0.0152 -0.0336,0.0704 -0.0455,0.12282 l -0.0216,0.0953 z m 0.005,-0.14675 -0.0575,-0.0621 0.0457,0.10136 c 0.0275,0.0612 0.0503,0.0858 0.0574,0.0621 0.006,-0.0216 -0.0141,-0.0672 -0.0456,-0.10135 z"
         id="path2101" />
      <path
         style="opacity:1;fill:#0d0c06;fill-opacity:0.70854277;stroke:#2c7178;stroke-width:0.02735193;stroke-miterlimit:4;stroke-dasharray:none;stroke-opacity:1"
         d="m 246.97245,-306.12916 c -0.0111,-0.02 -0.0591,-0.0266 -0.12473,-0.0171 -0.0587,0.009 -0.13,0.003 -0.15842,-0.0123 -0.041,-0.0221 -0.0342,-0.0248 0.0331,-0.0133 0.0723,0.0124 0.0884,0.004 0.10916,-0.0574 0.0279,-0.0824 0.034,-0.0846 0.10259,-0.0366 0.0405,0.0284 0.0831,0.0255 0.21703,-0.0145 0.20835,-0.0622 0.25154,-0.0632 0.23165,-0.005 -0.033,0.0966 -0.37213,0.22557 -0.4104,0.15615 z m 0.25007,-0.087 0.061,-0.0599 -0.0775,0.0184 c -0.0426,0.0101 -0.0945,0.0371 -0.11534,0.0599 -0.0636,0.0698 0.0596,0.0527 0.13185,-0.0184 z"
         id="path2103" />
      <path
         style="opacity:1;fill:#0d0c06;fill-opacity:0.70854277;stroke:#2c7178;stroke-width:0.02735193;stroke-miterlimit:4;stroke-dasharray:none;stroke-opacity:1"
         d="m 256.53722,-302.6678 c -0.0707,-0.0927 -0.11829,-0.12955 -0.16792,-0.13004 -0.051,-4.4e-4 -0.0897,-0.0321 -0.14676,-0.11988 -0.0426,-0.0656 -0.12401,-0.14292 -0.18084,-0.17193 -0.0568,-0.029 -0.1481,-0.10658 -0.20279,-0.17238 -0.0547,-0.0658 -0.13608,-0.13696 -0.18085,-0.15813 -0.0448,-0.0212 -0.12146,-0.0851 -0.17043,-0.14211 -0.049,-0.057 -0.11123,-0.10361 -0.13837,-0.10361 -0.0271,0 -0.0846,-0.0333 -0.12771,-0.0739 -0.0431,-0.0407 -0.11169,-0.0814 -0.1524,-0.0905 -0.0407,-0.009 -0.10593,-0.0527 -0.14495,-0.0969 -0.039,-0.0442 -0.12503,-0.10852 -0.19116,-0.14302 -0.0661,-0.0345 -0.14059,-0.088 -0.16547,-0.11877 -0.0249,-0.0308 -0.065,-0.056 -0.0892,-0.056 -0.0242,0 -0.0972,-0.0456 -0.16238,-0.10135 -0.0651,-0.0557 -0.13197,-0.10135 -0.14853,-0.10135 -0.0166,0 -0.0667,-0.0327 -0.11135,-0.0727 -0.10482,-0.0938 -0.11086,-0.10054 -0.17449,-0.19591 -0.0833,-0.12483 -0.21331,-0.17367 -0.41488,-0.15583 -0.1374,0.0122 -0.17525,0.007 -0.18699,-0.0278 -0.008,-0.0236 -0.0786,-0.0758 -0.15663,-0.11581 -0.17616,-0.0904 -0.19199,-0.11689 -0.085,-0.14225 0.0463,-0.011 0.1234,-0.0467 0.1713,-0.0793 0.11179,-0.0761 0.14412,-0.0639 0.6842,0.25821 0.91633,0.54657 1.8129,1.22616 2.56964,1.94775 0.27057,0.25799 0.2839,0.27581 0.24866,0.33221 -0.0205,0.0328 -0.0372,0.0828 -0.0372,0.11107 0,0.0787 -0.0297,0.0614 -0.13744,-0.0798 z"
         id="path2105" />
      <path
         style="opacity:1;fill:#0d0c06;fill-opacity:0.70854277;stroke:#2c7178;stroke-width:0.02735193;stroke-miterlimit:4;stroke-dasharray:none;stroke-opacity:1"
         d="m 254.01362,-304.28847 c -0.0414,-0.0265 -0.0501,-0.0418 -0.0243,-0.0424 0.0221,-4.4e-4 0.0628,0.0181 0.0904,0.0415 0.0642,0.0545 0.0184,0.0551 -0.0661,8.8e-4 z"
         id="path2107" />
      <path
         style="opacity:1;fill:#0d0c06;fill-opacity:0.70854277;stroke:#2c7178;stroke-width:0.02735193;stroke-miterlimit:4;stroke-dasharray:none;stroke-opacity:1"
         d="m 253.10939,-304.75179 c -0.0822,-0.0355 -0.0844,-0.0392 -0.0243,-0.0412 0.0364,-0.001 0.0887,0.0169 0.11626,0.0403 0.0616,0.0522 0.0277,0.0526 -0.0919,8.7e-4 z"
         id="path2109" />
      <path
         style="opacity:1;fill:#0d0c06;fill-opacity:0.70854277;stroke:#2c7178;stroke-width:0.02735193;stroke-miterlimit:4;stroke-dasharray:none;stroke-opacity:1"
         d="m 257.61765,-301.42394 c -0.0568,-0.054 -0.0913,-0.0984 -0.0765,-0.0986 0.0357,-4.4e-4 0.20931,0.16359 0.19279,0.18227 -0.007,0.008 -0.0594,-0.0296 -0.11626,-0.0836 z"
         id="path2111" />
      <path
         style="opacity:1;fill:#0d0c06;fill-opacity:0.70854277;stroke:#2c7178;stroke-width:0.02735193;stroke-miterlimit:4;stroke-dasharray:none;stroke-opacity:1"
         d="m 258.17302,-301.01177 c -0.36278,-0.39431 -0.59412,-0.69809 -0.59412,-0.78014 0,-0.0539 0.0129,-0.0475 0.10586,0.0531 0.0582,0.063 0.15286,0.19265 0.2103,0.28821 0.12358,0.20556 0.22493,0.33301 0.26482,0.33301 0.0298,0 0.3359,0.40113 0.31958,0.41885 -0.005,0.006 -0.14298,-0.13532 -0.30644,-0.313 z"
         id="path2113" />
      <path
         style="opacity:1;fill:#0d0c06;fill-opacity:0.70854277;stroke:#2c7178;stroke-width:0.02735193;stroke-miterlimit:4;stroke-dasharray:none;stroke-opacity:1"
         d="m 257.50427,-301.6846 c -0.0482,-0.0384 -0.11524,-0.11216 -0.14908,-0.16402 -0.0796,-0.12192 -0.13443,-0.16668 -0.20435,-0.16668 -0.031,0 -0.0697,-0.0179 -0.0859,-0.0397 -0.0234,-0.0316 -0.0134,-0.0472 0.0485,-0.0759 0.05,-0.0232 0.0779,-0.057 0.0779,-0.0941 0,-0.0482 0.006,-0.0519 0.0387,-0.0219 0.0213,0.0198 0.0387,0.051 0.0387,0.0692 0,0.0754 0.13221,0.24931 0.18953,0.24931 0.0715,0 0.12127,0.0509 0.10272,0.10511 -0.008,0.0221 0.005,0.0721 0.0279,0.11128 0.0731,0.12502 0.048,0.13315 -0.0847,0.0274 z"
         id="path2115" />
    </g>
  </g>
</svg>
